<svg id="Calque_1" xmlns="http://www.w3.org/2000/svg" viewBox="0 0 50 50"><style>.st0{fill:#FFFFFF;} .st1{fill:#38B795;}</style><path class="st0" d="M25 50C11.2 50 0 38.8 0 25S11.2 0 25 0s25 11.2 25 25-11.2 25-25 25zm0-49C11.8 1 1 11.8 1 25s10.8 24 24 24 24-10.8 24-24S38.2 1 25 1z"/><path class="st1" d="M24.8 14.5h-4.3c-1.3 0-2.3 1.1-2.3 1.1S7 25.5 6.5 25.9c-.5.5-.7 1.2-.7 1.2l-.8 3c-.1.6.3.6.3.6H15l-1.6 5.5h5.2l1.6-5.5H22l1.1-4.1h-1.4s3.4-11 3.6-11.6c.1-.6-.5-.5-.5-.5zm-8.6 12.1h-4.5l6.6-5.9-2.1 5.9zM42.7 13.9h-5.2s-7.2-.2-10.3 8c-.4 1-1.6 5.4-1.6 5.4s-2 6.8 4.6 9.1c2.8 1 7.7-.1 7.7-.1s1.1 0 1.5-1.6c.5-1.6 2.8-9.2 2.8-9.2s.3-.8-.6-.8h-6.1s-.4-.1-.7.5c-.2.7-.9 3-.9 3s0 .3.3.3h2.1l-.6 2.2s-.2 1-1.4 1h-1.9s-3-.2-2.1-3.5 1.5-5.2 1.5-5.2 1.1-3.6 5-3.6H41s.5.1.7-.5c.2-.6 1.4-4.5 1.4-4.5s.4-.5-.4-.5z"/><g><path class="st0" d="M18.7 36.6h-5.8l1.6-5.5H5.1s-.3 0-.5-.2c-.1-.2-.2-.4-.1-.7l.8-3s.2-.8.8-1.4c.5-.4 11.3-9.8 11.7-10.2.1-.2 1.1-1.2 2.5-1.2h4.2c.1 0 .5-.1.7.2.1.1.2.3.1.7-.2.6-2.8 9.2-3.4 11.2h1.4L22.1 31h-1.8l-1.6 5.6zm-5-.7h4.5l1.6-5.5h1.8l1-3.5h-1.4l.1-.4c0-.1 3.4-11 3.6-11.6v-.1h-4.5c-1.1 0-2 1-2 1-.5.4-11.2 9.8-11.8 10.3-.5.4-.6 1-.6 1l-.8 3v.2h10.2l-1.7 5.6zm2.7-9h-5.6l8.2-7.2-2.6 7.2zm-3.9-.7H16l1.6-4.5-5.1 4.5zM33.2 37.1c-1.1 0-2.2-.1-3.2-.4-6.8-2.4-4.8-9.4-4.8-9.5 0-.2 1.2-4.4 1.6-5.4 3.1-8.3 10.5-8.2 10.6-8.2h5.2c.4 0 .6.2.7.3.2.3.1.7 0 .7 0 0-1.2 3.8-1.3 4.4-.2.6-.7.8-1 .7h-4.2c-3.6 0-4.7 3.3-4.7 3.4 0 0-.6 1.9-1.5 5.2-.3 1-.2 1.7.2 2.3.5.8 1.6.8 1.6.8h1.8c.9 0 1.1-.7 1.1-.8l.5-1.8h-1.7c-.2 0-.4-.1-.4-.2-.2-.2-.1-.4-.1-.4 0-.1.7-2.4.9-3.1.3-.7.7-.8 1-.7h6.1c.5 0 .7.2.8.3.3.4.1.8.1.9 0 0-2.3 7.6-2.8 9.2-.5 1.6-1.6 1.8-1.8 1.8-.2.1-2.4.5-4.7.5zm4.2-22.9c-.2 0-1.9 0-3.8.9-2.8 1.3-4.8 3.6-6.1 6.9-.4.9-1.6 5.3-1.6 5.4-.1.3-1.8 6.5 4.4 8.7 2.7.9 7.5-.1 7.6-.1h.1s.8 0 1.2-1.4c.5-1.6 2.8-9.2 2.8-9.2 0-.1.1-.3 0-.3 0 0-.1-.1-.3-.1h-6.2c-.1 0-.2.1-.3.3-.2.6-.7 2.4-.9 2.9h2.5l-.8 2.6c-.1.5-.5 1.3-1.7 1.3h-1.9c-.1 0-1.4-.1-2.1-1.1-.5-.7-.6-1.6-.3-2.8.9-3.3 1.5-5.2 1.5-5.2s1.3-3.8 5.3-3.8h4.3c.1 0 .2 0 .3-.3.2-.6 1.3-4.3 1.4-4.5v-.2h-5.4c.1 0 0 0 0 0z"/><path class="st0" d="M12.3 18H19c.2 0 .3-.1.3-.3 0-.2-.1-.3-.3-.3h-6.7c-.2 0-.3.1-.3.3 0 .1.2.3.3.3zM9.1 21.8h3.5c.2 0 .3-.1.3-.3 0-.2-.1-.3-.3-.3H9.1c-.2 0-.3.1-.3.3 0 .2.1.3.3.3zM3 27h4.4c.2 0 .3-.1.3-.3 0-.2-.1-.3-.3-.3H3c-.2 0-.3.1-.3.3 0 .2.1.3.3.3zM4 29.4h2.9c.2 0 .3-.1.3-.3 0-.2-.1-.3-.3-.3H4c-.2 0-.3.1-.3.3 0 .1.1.3.3.3zM12.1 34.2H15c.2 0 .3-.1.3-.3 0-.2-.1-.3-.3-.3h-2.9c-.2 0-.3.1-.3.3 0 .2.1.3.3.3zM23.9 33.9h6c.2 0 .3-.1.3-.3 0-.2-.1-.3-.3-.3h-6c-.2 0-.3.1-.3.3 0 .2.1.3.3.3zM30 16.1h3.8c.2 0 .3-.1.3-.3 0-.2-.1-.3-.3-.3H30c-.2 0-.3.1-.3.3 0 .1.1.3.3.3zM25.7 20.3h3.8c.2 0 .3-.1.3-.3 0-.2-.1-.3-.3-.3h-3.8c-.2 0-.3.1-.3.3 0 .2.1.3.3.3z"/></g></svg>