<svg id="Calque_1" xmlns="http://www.w3.org/2000/svg" viewBox="0 0 50 50"><style>.st0{fill:#38B795;} .st1{fill:#FFFFFF;}</style><circle class="st0" cx="23.5" cy="9.5" r="3.5"/><path class="st0" d="M43 27.7c0-6.9-7.8-12.5-17.3-12.5-4.2 0-8.2 1.1-11.4 3.1-.9-.2-4.3-.7-7 1.8-.1.2-.3.4-.2.6.1.4.5.5 1.1.7.6.2 1.6.5 2 1C9 24 8.4 25.9 8.4 27.8v.8l-.3.1c-.4 0-.9.2-1.3.6-.5.5-.7 1.2-.7 2.1 0 .9.9 1.1 2 1.4l.9.3c.2.1.4.1.6.2.1 0 .2.1.4.1 1.2 1.4 2.8 2.7 4.7 3.8-.2.4-.4 1.5 0 2.3.3.5.7.9 1.3 1 .2.1.4.1.6.2.6.2 1.3.4 1.8.4.3 0 .7-.1 1-.3.4-.3.7-.7.9-1.3.7.2 1.4.3 2.1.5 0 1.9 1.2 2.7 1.9 2.8.1 0 2.8.3 4.2.3.4 0 .7-.1.9-.4.5-.7.5-2 .5-2.8 1.3-.2 2.5-.5 3.6-.9.4.7.8 1.2 1.4 1.4.3.1.6.2.9.2.4 0 .7-.1.6-.3h.1c.1-.1 2.9-1.6 3.8-2.4 1.1-.7.2-2.4-.3-3.2 1.9-2 3-4.5 3-7z"/><path class="st1" d="M7.532 31.953l.252-.864.96.28-.253.863z"/><path class="st1" d="M43.3 27.6c0-7-7.9-12.7-17.7-12.7-4.3 0-8.4 1.1-11.6 3.2-1-.2-4.4-.8-7.1 1.9-.1.2-.3.4-.2.6.1.4.5.4 1.1.7.6.2 1.6.5 2 1-1.1 1.7-1.7 3.6-1.7 5.5v.8l-.3.1c-.4 0-.9.2-1.3.6-.5.5-.8 1.2-.8 2.1s.9 1.1 2 1.4l.9.3c.2.1.4.1.6.2.1 0 .2.1.4.1 1.2 1.4 2.9 2.8 4.8 3.9-.2.5-.4 1.5 0 2.3.3.5.7.9 1.3 1 .2.1.4.1.6.2.6.2 1.3.4 1.9.4.3 0 .7-.1 1-.3.4-.3.7-.7.9-1.3.7.2 1.5.4 2.2.5 0 1.9 1.2 2.7 1.9 2.8.1 0 2.9.3 4.3.3.4 0 .8-.1.9-.4.5-.7.5-2.1.5-2.8 1.3-.2 2.5-.5 3.7-1 .4.7.8 1.2 1.4 1.4.3.1.6.2.9.2.4 0 .7-.1.6-.3h.1c.1-.1 3-1.6 3.9-2.4 1.1-.8.2-2.5-.3-3.2 2-2 3.1-4.4 3.1-7.1zM8.9 32.2l-.9-.3c-.5-.1-1.1-.3-1.2-.5 0-.6.1-1.1.3-1.3.3-.3.8-.3.9-.3.3.1 2.1.5 3.3.9.3.1 1.1.3.5 2.3-.2 0-.5-.1-.9-.2l.2-.7-1-.3-.1.7c-.2-.1-.3-.1-.5-.2-.2 0-.4-.1-.6-.1zm9.8 8c-.4.3-1.2.1-2.1-.2-.2-.1-.4-.1-.6-.2-.3-.1-.5-.3-.6-.5-.2-.4-.1-1 0-1.4 1.2.6 2.5 1.1 3.8 1.6-.2.3-.3.6-.5.7zm21.2-2.8c-.9.6-3.4 2.1-3.8 2.3-.2.1-1 .2-1.6-.9.4-.1.7-.3 1.1-.5l-.5-1c-1.8.8-3.7 1.4-5.8 1.8l-.5.1.1.5c.1.8.1 2.1-.2 2.5 0 .1-.1.1-.1.1-1.3 0-4.1-.3-4.1-.3-.1 0-1-.2-1.1-1.7.3 0 .6.1 1 .1l.1-1.1c-5.1-.3-10-2.7-12.8-5.3h.4c.2 0 .4-.1.5-.1l.1-.1 2.6-.5c.3-.1 1.5-.4 1.4-2.8l-1 .1c.1 1.3-.3 1.7-.5 1.7l-2 .3c.4-2-.7-2.8-1.4-3-.4-.2-.9-.3-1.4-.5l.4-.1-.2-1-1.3.3v-.6c0-2.2.9-4.3 2.5-6.2l-.8-.7c-.2.2-.3.3-.4.5-.6-.6-1.6-.9-2.3-1.1 2.7-2 5.7-1.2 5.8-1.1l.2.1.2-.1c3.1-2 7.1-3.1 11.3-3.1 9.2 0 16.6 5.2 16.6 11.7 0 2.5-1 4.8-3.1 6.8l-.3.3.3.3c.4.9 1 2 .6 2.3z"/><path class="st1" d="M20.9 21.3c-.5.1-.8.4-.9.8-.1.2 0 .5.2.7 2.1 2.2 1.4 4.4 1.4 4.5l1 .3c.1-.1.8-2.7-1.4-5.3.5-.1 1.8 0 3.3 1.6l.8-.7c-1.7-1.9-3.5-2.2-4.4-1.9zM18.9 19.5c.1 0 3.4-1.6 8-1.7v-1c-5 .1-8.4 1.8-8.5 1.9l.5.8zM18.7 26c-.1 0-.5.3-.6.8-.1.3-.1.6.2 1l.9-.5-.1-.1s.1-.1.1-.2l-.5-1zM10.6 25.4l1-.3c0-.1 0-.1.1-.1l-.4-1c-.5.2-.9.7-.7 1.4zM23.4 13.1c.5 0 1.4-.2 1.4-.2l1.4-.5c1.1-.7 1.8-1.9 1.8-3.2 0-2.1-1.7-3.8-3.8-3.8 0 0-1.2.2-1.3.2-1.8.3-3.2 1.9-3.2 3.7-.1 2.1 1.6 3.8 3.7 3.8zm-.6-6.4s.5-.1.6-.1c1.4 0 2.7 1.2 2.7 2.7 0 1.1-.7 2.1-1.7 2.5-.3.1-.7.2-1 .2-1.5 0-2.7-1.2-2.7-2.7-.1-1.2.8-2.3 2.1-2.6z"/><path class="st1" d="M25 50C11.2 50 0 38.8 0 25S11.2 0 25 0s25 11.2 25 25-11.2 25-25 25zm0-49C11.8 1 1 11.8 1 25s10.8 24 24 24 24-10.8 24-24S38.2 1 25 1z"/></svg>