<svg id="Calque_1" xmlns="http://www.w3.org/2000/svg" viewBox="0 0 94 72"><style>.st0{display:none;} .st1{display:inline;} .st2{fill:#FFFFFF;} .st3{fill:#EA2736;} .st4{fill:#3D62A9;} .st5{fill:#231F20;} .st6{fill:#E6E7E7;} .st7{fill:#8ED5E9;} .st8{fill:#AFE0EF;} .st9{display:inline;fill:#231F20;} .st10{fill:#EFE859;} .st11{fill:#6D6E70;} .st12{fill:#F9D394;stroke:#000000;stroke-width:0.5;stroke-miterlimit:10;} .st13{fill:#FDCB6D;stroke:#000000;stroke-width:0.5;stroke-miterlimit:10;} .st14{fill:#FAC260;stroke:#000000;stroke-width:0.5;stroke-miterlimit:10;} .st15{fill:#F7B651;stroke:#000000;stroke-width:0.5;stroke-miterlimit:10;} .st16{fill:#404041;} .st17{fill:#FABC4A;} .st18{fill:#F7B651;}</style><g id="Calque_1_1_" class="st0"><g class="st1"><path class="st2" d="M20.9 56.3c11.4-14.1 24.4 10 41.5 13.7s23.8 1.9 30.1-11.5c0 0 5.6-11-7.1-14-9.3-1.9-9.3 7.4-21 7.5-6.2.3-12.1-4.4-12.1-4.4l7.4 6.3-8.6-1.7s11.4 8.9 23.6 2.3 13.1-2.9 14.2-.5.4 9.1-10.3 12.6S58 64.3 46.2 55s-23.6-12.9-31.3-1.3"/><path class="st2" d="M72.4 68.8c-3.5 0-7.3-.7-11.6-2-4.7-1.5-10.3-5.4-15.7-9.2-4.6-3.3-9.4-6.7-13.5-8.3l.2-.5c4.1 1.7 8.9 5.1 13.6 8.4 5.3 3.8 10.9 7.7 15.5 9.1 13.1 4.1 22.4 1.8 28.3-7.1 1.5-2.5 1.2-6.2-.6-8.2-1.8-2-4.9-2.1-8.7-.3-10.1 5-16.3 6.7-24.3 2.8l.4-.5c7.8 3.8 13.9 2.1 23.8-2.8 5.4-2.7 8.2-.9 9.3.4 2 2.2 2.3 6.2.7 8.9-4.2 6.2-9.9 9.3-17.4 9.3z"/><path class="st2" d="M73.9 70.5c-8.4 0-17.5-4.1-21.5-6.6-.2-.2-19.2-15.3-25.7-13.5l-.2-.4c6.8-1.8 25.4 12.9 26.2 13.6C58.9 67.3 77 75 86 65.4c5.5-5.8 6.1-10 5.7-12.4-.4-2.2-1.9-4.1-4.2-5.2-3.1-1.5-7.7.8-12.2 3.1-2.3 1-4.4 2.1-6.3 2.7-5.8 1.7-11.5-1.2-11.7-1.3l.3-.5c.1 0 5.7 3 11.3 1.3 1.9-.6 4-1.6 6.2-2.8 4.6-2.3 9.3-4.7 12.7-3.1 2.4 1.2 4 3.2 4.5 5.6.5 2.6-.2 6.9-5.8 12.9-3.4 3.6-7.9 4.8-12.6 4.8z"/><path class="st3" d="M14.9 53.4c7.8-11.6 19.5-8 31.3 1.3s21.6 15.1 32.3 11.6 11.3-10.2 10.3-12.6-2-6.1-14.2.5-22.5-1.8-22.5-1.8l3.6.5c8 3.9 14.3 2.1 24.1-2.8S92.7 54.5 90 59c-7.7 11.6-15 12-29.1 7.3-8.7-2.9-20.4-14-29.1-17.5"/><path class="st4" d="M20.9 56.4c11.4-14.1 24.4 10 41.5 13.7S86.2 72 92.5 58.6c0 0 5.6-11-7.1-14-9.3-1.9-9.3 7.4-21 7.5-6.2.3-12.1-4.4-12.1-4.4l5 4.3s5.8 3.1 11.5 1.3 13.9-8.2 18.7-5.8 7.4 8.7-1.4 18.1-26.4 2.6-33.6-1.8c0 0-19.2-15.3-25.9-13.5"/><path class="st5" d="M75 72c-3.5 0-7.7-.6-12.7-1.7-6.7-1.4-12.9-6.1-18.3-10.2-8.6-6.5-16.1-12.1-22.9-3.6l-.4-.3c7.1-8.8 14.8-3.1 23.6 3.5 5.4 4 11.5 8.6 18.1 10.1 17.7 3.8 23.8 1.5 29.8-11.4 0-.1 2.3-4.6.5-8.5-1.1-2.5-3.6-4.2-7.4-5.1-4.5-.9-6.8.9-9.4 3s-5.6 4.5-11.5 4.6c-3.4.1-6.6-1.1-8.9-2.3l5.2 4.5-8.3-1.7c3.1 2 12.5 6.8 22.2 1.5 5.8-3.2 9.7-4.3 11.9-3.6 1.5.5 2.1 1.8 2.5 2.9l.1.3c.5 1.1.6 3.1-.4 5.4-1.1 2.3-3.7 5.5-10.1 7.6-10.5 3.4-20.3-1.9-32.6-11.6-8.2-6.4-15.2-9.3-21-8.4-3.9.6-7.3 3-10 7l-.5-.3c2.8-4.2 6.3-6.6 10.3-7.3 5.9-.9 13.1 1.9 21.4 8.5C58.4 64.5 68 69.8 78.3 66.4c6.2-2 8.7-5.1 9.7-7.3 1-2.1.8-4 .4-4.9l-.1-.3c-.4-1-.9-2.1-2.2-2.6-2.1-.7-5.8.4-11.5 3.5-12.2 6.7-23.7-2.2-23.9-2.3l-.9-.7 8.7 1.8-6.6-5.6.3-.4c.1 0 5.9 4.6 11.9 4.3 5.7-.1 8.6-2.4 11.2-4.4 2.6-2.1 5.1-4.1 9.9-3.1 4 .9 6.6 2.7 7.8 5.4 1.9 4.2-.4 8.8-.5 9C88.1 68.5 83.2 72 75 72z"/></g><g class="st1"><path class="st6" d="M71 11.8c6.3-.4 12.6 4.9 13 11.3l1.6 22.5c.4 6.3-4.4 11.8-10.7 12.3l-50.4 3.5c-7.2.5-12.6-6.3-13-11.3"/><path class="st5" d="M74.9 58.3l-50.4 3.5c-7.6.5-13.1-6.7-13.5-11.7l.9-.1c.3 4.7 5.5 11.4 12.5 10.9l50.4-3.5c6.1-.4 10.7-5.7 10.2-11.8l-1.6-22.5C83.1 17 77.1 11.8 71 12.2l-.1-.9c6.6-.5 13 5.1 13.5 11.7L86 45.5c.4 6.6-4.6 12.3-11.1 12.8z"/><path class="st2" d="M80.8 21.9l1.5 21.6c.4 5.9-4.1 11.1-10 11.5l-49.6 3.4c-5.9.4-11.1-4.1-11.5-10L9.8 26.8c-.4-5.9 4.1-11.1 10-11.5l49.6-3.4c5.9-.4 11 4.1 11.4 10z"/><path class="st5" d="M73.1 55.4l-51 3.5c-5.8.4-10.8-4-11.2-9.7L9.3 26.1c-.4-5.8 4-10.8 9.7-11.2l51-3.5c5.8-.4 10.8 4 11.2 9.8l1.6 23.1c.5 5.7-3.9 10.7-9.7 11.1zm-54-39.6c-5.3.4-9.2 4.9-8.9 10.2l1.6 23.1c.4 5.3 4.9 9.2 10.2 8.9l51-3.5c5.3-.4 9.2-4.9 8.9-10.2l-1.6-23.1c-.4-5.3-4.9-9.2-10.2-8.9l-51 3.5z"/><path class="st7" d="M55.4 27.3l.9 12.3c.1 1.4-1 2.7-2.4 2.8l-12.3.9c-1.4.1-2.7-1-2.8-2.4l-.9-12.3c-.1-1.4 1-2.7 2.4-2.8l12.3-.9c1.2-.1 2.2.6 2.6 1.7.2.2.2.5.2.7z"/><path class="st8" d="M55.3 26.6L46 43l-4.4.3 6.3-18.1 4.7-.3c1.3-.1 2.3.6 2.7 1.7z"/><path class="st5" d="M54.8 42.8l-14.1 1c-1.2.1-2.3-.8-2.3-2l-1-14.1c-.1-1.2.8-2.3 2-2.3l14.1-1c1.2-.1 2.3.8 2.3 2l1 14.1c.1 1.2-.8 2.2-2 2.3zM39.5 26.3c-.7 0-1.2.7-1.2 1.3l1 14.1c0 .7.6 1.2 1.3 1.2l14.1-1c.7 0 1.2-.7 1.2-1.3l-1-14.1c0-.7-.6-1.2-1.3-1.2l-14.1 1zM55 58l-8 .6-.8-.7 8-.5z"/><path class="st5" d="M57.2 44.9l-18.6 1.3c-1.2.1-2.3-.8-2.3-2L35 25.6c-.1-1.2.8-2.3 2-2.3L55.6 22c1.2-.1 2.3.8 2.3 2l1.3 18.6c.1 1.2-.8 2.3-2 2.3zM37.1 24.1c-.7 0-1.2.6-1.2 1.3L37.2 44c0 .7.6 1.2 1.3 1.2L57.2 44c.7 0 1.2-.7 1.2-1.3L57 24c0-.7-.6-1.2-1.3-1.2l-18.6 1.3zM19.6 35.3c-.2-.1-.3-.2-.3-.4.4-1.5 1.6-2.8 3.1-3.4.1-.1.3 0 .4.2.1.1 0 .3-.2.4-1.3.5-2.3 1.6-2.7 3-.1.1-.2.2-.3.2z"/><path class="st5" d="M18.3 35.3s-.1 0 0 0c-.2 0-.3-.2-.3-.3.4-2.3 2.1-4.1 4.3-4.8.2 0 .3 0 .4.2 0 .2 0 .3-.2.4-2 .6-3.5 2.3-3.9 4.4-.1 0-.2.1-.3.1zM21 35.2h-.1c-.1-.1-.2-.2-.1-.4.4-.8 1-1.5 1.8-1.9.1-.1.3 0 .4.1s0 .3-.1.4c-.7.4-1.2.9-1.5 1.6-.2.2-.3.2-.4.2z"/><path class="st5" d="M24.8 41.8c-2.7.2-5.1-1.7-5.6-4.3-.1-.3 0-.6.2-.9.2-.2.5-.4.8-.4s.8.1 1 .9c.1.5.4.7.8 1 .5.4 1.2.9.7 2-.1.1-.2.2-.4.2-.1-.1-.2-.2-.2-.4.3-.7 0-.9-.5-1.3-.4-.3-.9-.6-1-1.3-.1-.5-.3-.5-.4-.5s-.2.1-.3.2c-.1.1-.1.3-.1.4.5 2.5 2.8 4.2 5.3 3.9 2.4-.3 4.2-2.4 4.1-4.8 0-2.4-1.8-4.5-4.2-4.7-.4 0-.7.2-.8.5-.1.3-.1.6.3.8.3.1 1.7.4 1.8 1.3 0 .4-.1.6-.2.7-.3.3-.7.3-.8.3-.5 0-.9 0-1.1.2-.2.1-.2.3-.2.5 0 .7.2.8.6 1 .3.2.8.4.8 1.1 0 .7.6 1.4.8 1.4.1 0 .2-.2.3-.8.1-1.1.1-1.8.1-2.2 0-.2.1-.4.2-.6.2-.1.4-.2.6-.1.3.1.7.1 1.1 0 .2 0 .3 0 .4.2 0 .2 0 .3-.2.4-.5.2-1 .1-1.4 0h-.1s-.1.1 0 .1c0 .4 0 1.2-.1 2.3s-.6 1.3-.9 1.3c-.7 0-1.3-1.1-1.4-2 0-.4-.2-.5-.5-.6-.4-.2-.9-.5-.9-1.5 0-.4.2-.7.4-.9.3-.3.8-.4 1.5-.3.1 0 .2 0 .3-.1.1-.1.1-.2.1-.3 0-.4-1-.7-1.4-.8l-.1-.1c-.5-.3-.8-.9-.6-1.5.2-.6.8-.9 1.4-.9 2.7.3 4.7 2.6 4.8 5.3 0 2.7-2 5-4.6 5.3h-.4zM70.4 36.8c-1.8.1-3.4-1.3-3.5-3.1-.1-.8.2-1.6.7-2.3.2-.2.5-.2.7-.1.2.2.2.5.1.7-.4.5-.6 1.1-.5 1.6.1 1.3 1.2 2.3 2.5 2.2s2.3-1.2 2.2-2.5c0-.6-.3-1.1-.7-1.6-.2-.2-.2-.5 0-.7s.5-.2.7 0c.6.6 1 1.3 1 2.2 0 1.9-1.3 3.5-3.2 3.6z"/><path class="st5" d="M70.2 32.8c-.3 0-.5-.2-.5-.4l-.2-2.2c0-.3.2-.5.4-.5.3 0 .5.2.5.4l.2 2.2c0 .3-.2.5-.4.5z"/></g><g class="st1"><path class="st2" d="M9.8 27.9C6.2 23.7 3 17.2 8.5 10.3 18-1.5 28.9 18.7 43.3 21.8s20 1.6 25.3-9.6c0 0 4.7-9.2-6-11.7-7.8-1.7-7.8 6.1-17.6 6.3-5.2.2-10.1-3.7-10.1-3.7l6.2 5.3-7.2-1.5s9.6 7.5 19.7 1.9 11-2.4 11.9-.5c.8 2 .3 7.7-8.6 10.6S39.6 17 29.8 9.2 10-1.6 3.5 8.1.4 27.5 11.2 34.9c0 0 .1-5.3-1.4-7z"/><path class="st2" d="M67.1 9.6c0 1.2-.3 2.4-.9 3.4-5.1 7.7-13 9.7-24.2 6.1-4-1.2-8.6-4.5-13.1-7.7-3.9-2.7-7.9-5.6-11.3-7-2.8-1.1-5.6-.9-8.2.6-3.8 2.1-6.6 6.7-7.5 12.2-.8 4.9 2.1 9.1 4.7 11.9 2.8 3 5.8 4.9 5.9 4.9l-.2.4c-.1-.1-12.3-7.6-10.7-17.2.8-5.7 3.6-10.4 7.5-12.6 2.8-1.6 5.8-1.8 8.7-.6 3.5 1.4 7.5 4.3 11.4 7 4.5 3.2 9.1 6.5 13 7.7 11 3.4 18.8 1.5 23.7-6 1.3-2.1 1-5.2-.5-6.9s-4.1-1.8-7.3-.2C49.6 9.8 44.4 11.2 37.7 8l.2-.4c6.5 3.2 11.6 1.8 20-2.3 4.5-2.2 6.8-.8 7.8.3.9 1 1.4 2.5 1.4 4z"/><path class="st2" d="M68.4 8.6c0 2.2-1 5.4-5 9.6-7.8 8.3-23.2 1.7-28.5-1.5-.2-.1-16-12.7-21.5-11.2-2.9.8-6.7 3.4-8.6 7.5-1 2.1-1.7 5.4.1 9.2 1.7 3.6 3.7 6.3 5.3 8.1 1.9 2.2 1.8 2.6 0 .7-1.7-1.9-3.8-4.7-5.7-8.7-1.5-3.1-1.5-6.5-.1-9.6C6.1 9.1 9.6 6 13.3 5 19 3.5 34.5 15.8 35.2 16.4c5.2 3.1 20.3 9.6 27.9 1.6 4.6-4.9 5.1-8.4 4.7-10.4-.3-1.9-1.6-3.4-3.5-4.4-2.6-1.3-6.5.7-10.2 2.6-1.9 1-3.7 1.9-5.3 2.3C44 9.5 39.2 7 39 6.9l.2-.4S44 9 48.7 7.6c1.6-.5 3.3-1.4 5.2-2.3 3.8-1.9 7.8-4 10.6-2.6 2 1 3.4 2.7 3.7 4.7.2.4.2.8.2 1.2z"/><path class="st3" d="M37.8 7.5c6.7 3.3 12 1.7 20.2-2.3s10.4 3.7 8.1 7.5c-6.4 9.7-16.6 8.3-24 6S25 7 17.7 4 3.2 7.4 1.7 16.9c-1.1 7 5.1 12.9 8.5 15.6-.2.5.8.5.1 1.5C.2 26.7-2.8 17.3 3.5 7.9 10-1.8 19.9 1.2 29.8 9s18.1 12.6 27.1 9.7 9.5-8.6 8.6-10.6c-.8-2-1.7-5.1-11.9.5S34.8 7.1 34.8 7.1l3 .4z"/><path class="st4" d="M10.1 28.3C6.3 24 2.9 17.4 8.5 10.4 18-1.4 28.9 18.8 43.3 21.9s20 1.6 25.3-9.6c0 0 4.7-9.2-6-11.7C54.8-1 54.8 6.8 45 6.9c-5.2.2-10.1-3.7-10.1-3.7l4.2 3.6s4.8 2.6 9.6 1.1S60.4 1.1 64.4 3s6.2 7.3-1.2 15.2S41 20.3 35 16.7c0 0-16.1-12.9-21.7-11.3s-12.5 9-8.6 17c1.6 3.4 3.4 6 5 7.8 1.3 1.5.5.7.4-.1-.2-.6.1-1.7 0-1.8z"/><path class="st5" d="M69.8 7.7c0 2.4-1 4.4-1.1 4.5C63.2 24 57.3 25.1 43.2 22c-5.6-1.2-10.8-5.1-15.4-8.5-7.2-5.4-13.5-10.1-19.2-3-2.4 2.9-3.3 6-2.8 9.3.4 2.6 3.3 4.9 4.1 7.3 0 4 .6 7.8.4 7.6C-.3 27-2.9 17.3 3.3 8 5.7 4.5 8.6 2.5 12 1.9c5-.8 11 1.6 17.9 7.1 10.2 8.1 18.2 12.5 26.9 9.7 5.2-1.7 7.3-4.3 8.2-6.1.8-1.8.7-3.3.3-4.1l-.1-.2c-.3-.8-.7-1.8-1.8-2.2-1.7-.6-4.9.3-9.6 2.9-10.2 5.6-19.9-1.9-20-1.9l-.8-.6L40.3 8l-5.5-4.7.2-.4s4.9 3.8 10 3.6c4.8-.1 7.2-2 9.3-3.7C56.5 1 58.5-.6 62.6.2c3.4.8 5.6 2.3 6.6 4.5.4 1 .6 2.1.6 3zM5.3 18c0-2.7 1-5.4 3-7.9 6-7.4 12.4-2.6 19.8 3 4.5 3.4 9.7 7.2 15.2 8.4 14.8 3.2 20 1.2 25-9.5 0 0 1.9-3.9.4-7.1-1-2.1-3.1-3.5-6.2-4.2-3.8-.8-5.7.7-7.9 2.5C52.4 4.9 49.9 6.9 45 7c-2.8.1-5.5-.9-7.5-2l4.4 3.7-7-1.4C37.5 9 45.3 13 53.5 8.6c4.9-2.7 8.1-3.6 10-3 1.3.4 1.7 1.5 2.1 2.4l.1.2c.4.9.5 2.6-.3 4.5-.9 1.9-3.1 4.6-8.4 6.4-8.8 2.9-17-1.6-27.3-9.8-6.8-5.4-12.7-7.8-17.6-7-3.3.6-6.1 2.6-8.4 6-6 9-3.6 18.3 6.6 25.7.2.1-.3-.7-.3-2 0-1.2.6-2.8-.5-4.1-1.9-2.2-3.6-5-4.1-8.1-.1-.6-.1-1.2-.1-1.8z"/></g><path class="st9" d="M10.2 26l1.6 23.1-.9.1-1.6-23.1.9-.1z"/></g><g id="Calque_2"><path class="st10" d="M68.9 18.2l2.9-.2c.2 0 .4-.2.5-.4l1.1-2.7c.2-.5.9-.5 1.1 0l1.1 2.7c.1.2.3.3.5.4l2.9.2c.5 0 .7.7.3 1L77 21.1c-.2.1-.2.4-.2.6l.7 2.8c.1.5-.4.9-.9.6l-2.4-1.5c-.2-.1-.4-.1-.6 0l-2.5 1.5c-.4.3-1-.1-.9-.6l.7-2.8c.1-.2 0-.4-.2-.6l-2.2-1.9c-.3-.3-.1-1 .4-1zM15 17.7l2.9-.2c.2 0 .4-.2.5-.4l1.1-2.7c.2-.5.9-.5 1.1 0l1.1 2.7c.1.2.3.3.5.4l2.9.2c.5 0 .7.7.3 1l-2.2 1.9c-.2.1-.2.4-.2.6l.7 2.8c.1.5-.4.9-.9.6L20.2 23c-.2-.1-.4-.1-.6 0l-2.5 1.5c-.4.3-1-.1-.9-.6l.7-2.8c.1-.2 0-.4-.2-.6l-2.2-1.9c-.3-.3-.1-.9.5-.9zm4.1 28.2l-2.4-1.5c-.2-.1-.4-.1-.6 0l-2.5 1.5c-.4.3-1-.1-.9-.6l.7-2.8c.1-.2 0-.4-.2-.6L11.1 40c-.4-.3-.2-1 .3-1l2.9-.2c.2 0 .4-.2.5-.4l1.1-2.7c.2-.5.9-.5 1.1 0l1.1 2.7c.1.2.3.3.5.4l2.9.2c.5 0 .7.7.3 1l-2.2 1.9c-.2.1-.2.4-.2.6l.7 2.8c0 .5-.5.9-1 .6zM32 58.1L29.8 60c-.2.1-.2.4-.2.6l.7 2.8c.1.5-.4.9-.9.6L27 62.4c-.2-.1-.4-.1-.6 0l-2.5 1.5c-.4.3-1-.1-.9-.6l.7-2.8c.1-.2 0-.4-.2-.6L21.3 58c-.4-.3-.2-1 .3-1l2.9-.2c.2 0 .4-.2.5-.4l1.1-2.7c.2-.5.9-.5 1.1 0l1.1 2.7c.1.2.3.3.5.4l2.9.2c.5.1.7.8.3 1.1zM39.3 11l-2.4-1.5c-.2-.1-.4-.1-.6 0L33.7 11c-.4.3-1-.1-.9-.6l.7-2.8c.1-.2 0-.4-.2-.6l-2.2-1.9c-.4-.3-.2-1 .3-1l2.9-.2c.2 0 .4-.2.5-.4L36 .9c.2-.5.9-.5 1.1 0l1.1 2.7c.1.2.3.3.5.4l2.9.2c.5 0 .7.7.3 1L39.6 7c-.2.1-.2.4-.2.6l.7 2.8c.1.5-.4.9-.8.6zm13 54.6l-2.2 1.9c-.2.1-.2.4-.2.6l.7 2.8c.1.5-.4.9-.9.6L47.3 70c-.2-.1-.4-.1-.6 0l-2.5 1.5c-.4.3-1-.1-.9-.6l.7-2.8c.1-.2 0-.4-.2-.6l-2.2-1.9c-.4-.3-.2-1 .3-1l2.9-.2c.2 0 .4-.2.5-.4l1.1-2.7c.2-.5.9-.5 1.1 0l1.1 2.7c.1.2.3.3.5.4l2.9.2c.5 0 .7.6.3 1zm8.1-54.2L58 9.9c-.2-.1-.4-.1-.6 0l-2.5 1.5c-.4.3-1-.1-.9-.6l.7-2.8c.1-.2 0-.4-.2-.6l-2.2-1.9c-.4-.3-.2-1 .3-1l2.9-.2c.2 0 .4-.2.5-.4l1.1-2.7c.2-.5.9-.5 1.1 0L59.3 4c.1.2.3.3.5.4l2.9.2c.5 0 .7.7.3 1l-2.2 1.9c-.2.1-.2.4-.2.6l.7 2.8c.1.4-.5.8-.9.5zm12.1 46.5l-2.2 1.9c-.2.1-.2.4-.2.6l.7 2.8c.1.5-.4.9-.9.6l-2.4-1.5c-.2-.1-.4-.1-.6 0l-2.5 1.5c-.4.3-1-.1-.9-.6l.7-2.8c.1-.2 0-.4-.2-.6l-2.2-1.9c-.4-.3-.2-1 .3-1l2.9-.2c.2 0 .4-.2.5-.4l1.1-2.7c.2-.5.9-.5 1.1 0l1.1 2.7c.1.2.3.3.5.4l2.9.2c.4.1.7.7.3 1zm8.2-16.1c-.2.1-.2.4-.2.6l.7 2.8c.1.5-.4.9-.9.6l-2.4-1.5c-.2-.1-.4-.1-.6 0l-2.5 1.5c-.4.3-1-.1-.9-.6l.7-2.8c.1-.2 0-.4-.2-.6l-2.2-1.9c-.4-.3-.2-1 .3-1l2.9-.2c.2 0 .4-.2.5-.4l1.1-2.7c.2-.5.9-.5 1.1 0l1.1 2.7c.1.2.3.3.5.4l2.9.2c.5 0 .7.7.3 1l-2.2 1.9z"/><path class="st5" d="M50 72c-.2 0-.4-.1-.6-.2L47 70.3l-2.5 1.5c-.4.2-.8.2-1.2 0-.4-.3-.5-.7-.4-1.1l.7-2.8-2.2-2c-.3-.3-.5-.7-.3-1.1.1-.4.5-.7.9-.7l2.9-.2 1.2-2.7c.2-.4.6-.7 1-.7s.8.3 1 .7l1.1 2.7 2.8.1c.4 0 .8.3.9.7.1.4 0 .9-.3 1.1l-2.2 1.9.7 2.9c.1.4-.1.9-.4 1.1-.2.2-.4.3-.7.3zm-3-2.7c.2 0 .4.1.6.2L50 71l.1-.1-.7-2.8c-.1-.4 0-.8.4-1.1l2.2-1.9V65l-3-.3c-.4 0-.8-.3-.9-.7L47 61.3l-.6-.2.5.2-1.1 2.7c-.2.4-.5.6-.9.7L42 65v.2l2.2 1.9c.3.3.4.7.3 1.1l-.7 2.8h.2l2.5-1.5c.1-.1.3-.2.5-.2zm-17.3-4.8c-.2 0-.4-.1-.6-.2l-2.4-1.5-2.5 1.5c-.4.2-.8.2-1.2 0-.4-.3-.5-.7-.4-1.1l.7-2.8-2.2-2c-.3-.3-.5-.7-.3-1.2.1-.4.5-.7.9-.7l2.9-.2 1.2-2.7c.2-.4.6-.7 1-.7s.8.3 1 .7l1.1 2.7 2.9.3c.4 0 .8.3.9.7s0 .9-.3 1.1l-2.2 1.9.7 2.9c.1.4-.1.9-.4 1.1-.3.2-.5.2-.8.2zM26.6 54l-1.1 2.7c-.2.4-.5.6-.9.7l-2.9.2v.1l2.2 1.9c.3.3.4.7.3 1.1l-.7 2.8.4.5-.3-.4 2.5-1.5c.3-.2.8-.2 1.1 0l2.4 1.5.1-.1-.7-2.8c-.1-.4 0-.8.4-1.1l2.2-1.9v-.1l-3-.3c-.4 0-.8-.3-.9-.7l-.9-2.6h-.2zm43.6 10.4c-.2 0-.4-.1-.6-.2l-2.4-1.5-2.5 1.5c-.4.2-.8.2-1.2 0-.4-.3-.5-.7-.4-1.1l.7-2.8-2.2-2c-.3-.3-.5-.7-.3-1.2.1-.4.5-.7.9-.7l2.9-.2 1.2-2.7c.2-.4.6-.7 1-.7s.8.3 1 .7l1.1 2.7 2.9.3c.4 0 .8.3.9.7s0 .9-.3 1.1l-2.2 1.9.7 2.9c.1.4-.1.9-.4 1.1-.4.1-.6.2-.8.2zm-3.1-2.7c.2 0 .4.1.6.2l2.4 1.5.1-.1-.7-2.8c-.1-.4 0-.8.4-1.1l2.2-1.9v-.1l-3-.3c-.4 0-.8-.3-.9-.7l-1.1-2.7-.6-.2.5.2-1 2.8c-.2.4-.5.6-.9.7l-2.9.2v.2l2.2 1.9c.3.3.4.7.3 1.1l-.7 2.7.1.1 2.5-1.5c.1-.1.3-.2.5-.2zM19.5 46.5c-.2 0-.4-.1-.6-.2l-2.4-1.5-2.5 1.5c-.4.2-.8.2-1.2 0-.4-.3-.5-.7-.4-1.1l.7-2.8-2.2-2c-.3-.3-.5-.7-.3-1.2.1-.4.5-.7.9-.7l2.9-.2 1.2-2.7c.2-.4.6-.7 1-.7s.8.3 1 .7l1.1 2.7 2.9.3c.4 0 .8.3.9.7s0 .9-.3 1.1L20 42.3l.7 2.9c.1.4-.1.9-.4 1.1-.4.1-.6.2-.8.2zm-8.1-6.9l2.2 1.9c.3.3.4.7.3 1.1l-.7 2.8.4.5-.3-.4 2.5-1.5c.3-.2.8-.2 1.1 0l2.4 1.5h.1l-.6-2.9c-.1-.4 0-.8.4-1.1l2.2-1.9v-.2l-2.9-.2c-.4 0-.8-.3-.9-.7L16.5 36l-.6-.2.5.2-1.1 2.7c-.2.4-.5.6-.9.7l-2.9.2-.4.4.3-.4zm69.2 6.8c-.2 0-.4-.1-.6-.2l-2.4-1.5-2.5 1.5c-.4.2-.8.2-1.2 0-.4-.3-.5-.7-.4-1.1l.7-2.8-2.2-2c-.3-.3-.5-.7-.3-1.2.1-.4.5-.7.9-.7l2.9-.2 1.2-2.7c.2-.4.6-.7 1-.7s.8.3 1 .7l1.1 2.7 2.9.3c.4 0 .8.3.9.7s0 .9-.3 1.2L81 42.2v.1l.7 2.8c.1.4-.1.9-.4 1.1-.2.1-.4.2-.7.2zm-8-6.9l2.2 1.9c.3.3.4.7.3 1.1l-.7 2.8.4.5-.3-.4 2.5-1.5c.3-.2.8-.2 1.1 0l2.4 1.5.1-.1-.6-2.8c-.1-.4 0-.8.4-1.1l2.2-1.9v-.2l-2.9-.2c-.4 0-.8-.3-.9-.7l-1.1-2.7-.6-.2.5.2-1.1 2.7c-.2.4-.5.6-.9.7l-2.9.2-.4.5.3-.3zM77 25.7c-.2 0-.4-.1-.6-.2L73.9 24l-2.5 1.5c-.4.2-.8.2-1.2 0-.4-.3-.5-.7-.4-1.1l.7-2.8-2.2-2c-.3-.3-.5-.7-.3-1.2.1-.4.5-.7.9-.7l2.9-.2 1.2-2.7c.2-.4.6-.7 1-.7s.8.3 1 .7l1.1 2.7 2.9.3c.4 0 .8.3.9.7.1.4 0 .9-.3 1.1l-2.2 1.9.7 2.9c.1.4-.1.9-.4 1.1-.3.1-.5.2-.7.2zm-3.6-10.8l.5.2-1.1 2.7c-.2.4-.5.6-.9.7l-2.9.2s-.1 0-.1.1l2.2 2c.3.3.4.7.3 1.1l-.7 2.8.4.5-.3-.4 2.5-1.5c.3-.2.8-.2 1.1 0l2.4 1.5.1-.1-.7-2.8c-.1-.4 0-.8.4-1.1l2.2-1.9v-.2l-2.8-.2c-.4 0-.8-.3-.9-.7L74 15.1l-.6-.2zM23 25.1c-.2 0-.4-.1-.6-.2L20 23.5 17.4 25c-.4.2-.8.2-1.2 0-.4-.3-.5-.7-.4-1.1l.7-2.8-2.2-2c-.3-.3-.5-.7-.3-1.2.1-.4.5-.7.9-.7l2.9-.2 1.2-2.7c.2-.4.6-.7 1-.7s.8.3 1 .7l1.1 2.7 2.9.3c.4 0 .8.3.9.7.1.4 0 .9-.3 1.1L23.4 21l.7 2.9c.1.4-.1.9-.4 1.1-.3.1-.5.1-.7.1zm-3.1-2.6c.2 0 .4.1.6.2l2.4 1.5.1-.1-.7-2.8c-.1-.4 0-.8.4-1.1l2.2-1.9v-.6.5L22 18c-.4 0-.8-.3-.9-.7L20 14.6l-.6-.2.5.2-1.1 2.7c-.2.4-.5.6-.9.7l-2.9.1s-.1 0-.1.1l2.2 2c.3.3.4.7.3 1.1l-.6 2.7.1.1 2.5-1.5c.1-.1.3-.1.5-.1zM60.7 12c-.2 0-.4-.1-.6-.2l-2.4-1.5-2.5 1.5c-.4.2-.8.2-1.2 0-.4-.3-.5-.7-.4-1.1l.7-2.8-2.2-2c-.3-.3-.5-.7-.3-1.2.1-.4.5-.7.9-.7l2.9-.2 1.2-2.7c.2-.4.6-.7 1-.7s.8.3 1 .7l1.1 2.7 2.8.2c.4 0 .8.3.9.7s0 .9-.3 1.1l-2.2 1.9.7 2.9c.1.4-.1.9-.4 1.1-.3.2-.5.3-.7.3zm-8.1-6.8L54.8 7c.3.3.4.7.3 1.1l-.7 2.8.4.5-.2-.4 2.5-1.5c.3-.2.8-.2 1.1 0l2.4 1.5h.1l-.6-2.9c-.1-.4 0-.8.4-1.1l2.2-1.9v-.6.5l-2.9-.2c-.4 0-.8-.3-.9-.7l-1.1-2.7h-.2l-1.1 2.7c-.2.4-.5.6-.9.7l-2.9.2-.4.5.3-.3zm-13 6.4c-.2 0-.4-.1-.6-.2l-2.4-1.5-2.6 1.5c-.4.2-.8.2-1.2 0-.4-.3-.5-.7-.4-1.1l.7-2.8-2.2-2c-.3-.3-.5-.7-.3-1.2.1-.4.5-.7.9-.7l2.9-.2L35.6.7c.2-.4.6-.7 1-.7s.8.3 1 .7l1.1 2.7 2.9.3c.4 0 .8.3.9.7.1.4 0 .9-.3 1.1L40 7.4l.7 2.9c.1.4-.1.9-.4 1.1-.3.1-.5.2-.7.2zm-3.1-2.7c.2 0 .4.1.6.2l2.4 1.5h.1L39 7.7c-.1-.4 0-.8.4-1.1l2.2-1.9v-.6.5l-2.9-.2c-.4 0-.8-.3-.9-.7L36.6 1 36 .9l.4.1-1.1 2.7c-.2.4-.5.6-.9.7l-2.9.2v.2l2.2 1.9c.3.2.4.6.3 1l-.7 2.8.1.1L35.9 9c.2-.1.4-.1.6-.1z"/><path class="st5" d="M58.4 65.7L29 63.9c-.8-.1-3.8-2.9-3.8-3.7l7.5-47.6c.1-.8 10.5-5.5 11.4-5.4l16.8 1c.8.1 2.3 3.3 2.2 4.1l-3.2 52c.1.8-.6 1.4-1.5 1.4z"/><path class="st5" d="M58.4 66L29 64.1c-.9-.1-4.1-3-4-4l7.5-47.6c0-.2 0-.7 6.6-3.2 2.6-1 4.5-2.5 5-2.5l16.8 1c.6 0 1.2 1.1 1.7 1.9.4.8.8 2 .8 2.5l-3.2 52c0 1.1-.8 1.8-1.8 1.8zM33.1 12.6l-7.5 47.6c0 .6 2.8 3.3 3.5 3.4l29.4 1.8c.7 0 1.3-.5 1.3-1.2l3.2-52c.1-1-1.5-3.8-2-3.8l-16.8-1c-1 0-10.5 4.4-11.1 5.2zm0 0z"/><path class="st11" d="M56.1 63.6l-29.4-1.8c-.8-.1-1.5-.8-1.4-1.6l3.2-52.5c.1-.8.8-1.5 1.6-1.4l15.8 1c.5 0 .9.5.8 1l-.3 4.8c0 .5.3.9.8 1l12.4.8c.5 0 .9.5.8 1l-2.9 46.5c.1.6-.6 1.3-1.4 1.2z"/><path class="st5" d="M56.1 63.9l-29.4-1.8c-1-.1-1.7-.9-1.7-1.9l3.2-52.5c.1-1 .9-1.7 1.9-1.7L46 7c.6 0 1.1.6 1.1 1.2l-.3 4.8c0 .4.2.7.6.7l12.4.8c.6 0 1.1.6 1.1 1.2L58 62.2c-.1 1-1 1.7-1.9 1.7zm-26-57.3c-.7 0-1.3.5-1.3 1.2l-3.2 52.5c0 .7.5 1.3 1.2 1.3l29.4 1.8c.7 0 1.3-.5 1.3-1.2l2.9-46.5c0-.4-.2-.7-.6-.7l-12.4-.8c-.6 0-1.1-.6-1.1-1.2l.3-4.8c0-.4-.2-.7-.6-.7l-15.9-.9z"/><path class="st2" d="M39.5 54c-.1 0-.2-.1-.1-.2.4-.8 1.1-1.5 2-1.7.1 0 .2 0 .2.1s0 .2-.1.2c-.8.2-1.4.7-1.7 1.5-.1 0-.2.1-.3.1z"/><path class="st2" d="M38.8 53.9c-.1 0-.2-.1-.1-.2.4-1.3 1.5-2.2 2.8-2.4.1 0 .2 0 .2.1s0 .2-.1.2c-1.2.2-2.2 1-2.5 2.2-.2 0-.2.1-.3.1zM40.3 54s-.1 0 0 0c-.2-.1-.2-.2-.1-.2.3-.4.7-.7 1.1-.9.1 0 .2 0 .2.1s0 .2-.1.2c-.4.2-.7.4-1 .8h-.1z"/><path class="st2" d="M41.9 58c-1.5-.1-2.8-1.3-2.8-2.9 0-.2.1-.3.2-.5.1-.1.3-.2.5-.2s.4.1.5.6c0 .3.2.4.4.6.3.3.6.6.3 1.2 0 .1-.1.1-.2.1s-.1-.1-.1-.2c.2-.4.1-.5-.2-.8-.2-.2-.5-.4-.5-.8 0-.3-.1-.3-.2-.3s-.1 0-.2.1-.1.1-.1.2c.1 1.4 1.3 2.6 2.7 2.6s2.5-1 2.7-2.4-.7-2.6-2-3c-.2-.1-.4.1-.5.2-.1.1-.1.3.1.5.2.1.9.4.9.9 0 .2-.1.3-.2.4-.2.1-.4.1-.5.1-.3-.1-.5 0-.6 0-.1.1-.1.1-.2.3-.1.4.1.5.2.6.2.1.4.3.4.7s.2.8.3.9c0 0 .1-.1.2-.4.2-.6.2-1 .2-1.2 0-.1.1-.2.2-.3.1-.1.2-.1.4 0h.7c.1 0 .2 0 .2.1s0 .2-.1.2c-.3.1-.6 0-.8-.1h-.1v.1c0 .2-.1.7-.2 1.3-.2.6-.4.7-.6.6-.4-.1-.7-.7-.6-1.2 0-.2-.1-.3-.2-.4-.2-.1-.5-.3-.4-.9 0-.2.1-.4.3-.5s.5-.2.9-.1h.2s.1-.1.1-.2c0-.2-.5-.5-.7-.5-.3-.2-.4-.6-.2-.9.2-.3.5-.5.8-.4 1.5.4 2.5 1.8 2.3 3.3s-1.5 2.7-3 2.7c-.3-.1-.4-.1-.5-.1z"/><path class="st7" d="M58.7 13.8L48 13.1c-.3 0-.5-.3-.5-.5l.2-3.8c0-.3.3-.5.5-.5L59 9c.3 0 .5.3.5.5l-.2 3.8c0 .3-.3.5-.6.5z"/><path class="st8" d="M53.3 13.4l-1.3-.1 2.4-4.6 2.3.1z"/><g><path class="st12" d="M47.8 8.3s.9-2.4 2-4.1c2 1.7 2.9 3.6 2.9 3.6l-2.4.7-2.5-.2zM59.5 9s-.7-2.5-1.5-4.3c-2.2 1.4-3.3 3.2-3.3 3.2l2.3.9 2.5.2z"/><path class="st13" d="M46.8 9.3s1.6-.6 3.7-.8c-1.8-3.8-5.2-5.1-5.2-5.1l1.5 5.9zM60.7 10.1s-1.5-.8-3.6-1.2c2.3-3.5 5.7-4.4 5.7-4.4l-2.1 5.6z"/><path class="st14" d="M57.8 9s-1.4-.3-4-.5c-2.7-.2-4 0-4 0s1.8-3 4.4-6.1c-.1.1 1.6 2 3.6 6.6z"/><path class="st15" d="M57.7 9c-.4-.1-1.7-.3-3.8-.4 0 0-.1 0-.1-.1l.4-5.9c0-.1.1-.1.1 0 .3.5 1.7 2.4 3.4 6.4z"/></g></g><g id="Calque_3" class="st0"><g class="st1"><path class="st11" d="M29.5 27.6c-.4 0-.8-.3-.8-.6l-.1-2.8c0-.4.3-.7.6-.7h.1c.4 0 .7.3.7.6l.1 2.8c.1.4-.2.7-.6.7z"/><path class="st5" d="M29.5 27.9c-.5 0-1-.4-1-.9l-.1-2.8c0-.5.4-1 .9-1s1 .4 1 .9l.1 2.8c0 .5-.4.9-.9 1zm-.2-4.2c-.3 0-.5.2-.4.5L29 27c0 .3.2.4.5.4s.5-.2.4-.5l-.1-2.8c0-.2-.2-.4-.5-.4z"/><path class="st11" d="M60.5 8.6l2.4 2.3c.7.7.8 1.9.1 2.7l-1.9 2.1c-.4.5-.7 1.1-.6 1.8l2.1 40.8c.1 2.5-1.8 4.6-4.4 4.8l-21.3.9c-2.2.1-5.4-2.7-5.6-4.8L60.5 8.6z"/><path class="st5" d="M58.3 63.2L37 64.3c-2.3.1-5.7-2.8-5.8-5v-.2L60.5 8.3l2.7 2.5c.8.8.9 2.1.1 3l-1.9 2.1c-.4.4-.6 1-.6 1.6l2.1 40.8c.1 2.5-2 4.8-4.6 4.9zm-26.7-3.9c.2 2 3.2 4.6 5.3 4.5l21.3-1.1c2.4-.1 4.3-2.2 4.1-4.5l-2.1-40.8c0-.7.2-1.4.7-1.9l1.9-2.1c.6-.7.6-1.7-.1-2.3L60.6 9l-29 50.3z"/><path class="st16" d="M57.5 8.5l-2.1 2.3c-.3.4-.8.6-1.3.6L33 12.5c-2.2.1-3.9 2-3.8 4.1L31.4 59c.1 2.2 2 3.8 4.2 3.7l21.9-1.1c2.2-.1 3.9-2 3.8-4.1l-2.1-41.7c0-.5.1-1 .5-1.3l2.1-2.2c.7-.8.7-1.9-.1-2.7l-1.2-1.2c-1-.8-2.2-.7-3 .1z"/><path class="st5" d="M57.5 61.9L35.6 63c-2.3.1-4.3-1.7-4.4-3.9L29 16.7c-.1-2.3 1.7-4.3 4-4.4l21.2-1.1c.4 0 .8-.2 1.1-.5l2.1-2.3c.4-.4 1-.7 1.6-.7s1.2.2 1.6.6l1.2 1.2c.8.8.9 2.1.1 3l-2.1 2.2c-.3.3-.4.7-.4 1.1l2.1 41.7c.1 2.3-1.7 4.2-4 4.4zM33 12.7c-2.1.1-3.6 1.8-3.5 3.9L31.6 59c.1 2 1.9 3.6 3.9 3.5l21.9-1.1c2.1-.1 3.6-1.8 3.5-3.9l-2.1-41.7c0-.6.2-1.1.5-1.5l2.1-2.2c.6-.7.6-1.7-.1-2.3l-1.2-1.2c-.3-.3-.8-.5-1.2-.5-.5 0-.9.2-1.2.6L55.6 11c-.4.4-.9.7-1.5.7l-21.1 1z"/><ellipse transform="rotate(-2.944 38.803 21.997) scale(1.00002)" class="st2" cx="38.8" cy="22" rx=".3" ry=".3"/><ellipse transform="rotate(-2.944 42.403 21.8) scale(1.00002)" class="st2" cx="42.4" cy="21.8" rx=".3" ry=".3"/><ellipse transform="rotate(-2.944 46.002 21.6) scale(1.00002)" class="st2" cx="46" cy="21.6" rx=".3" ry=".3"/><ellipse transform="rotate(-2.944 49.6 21.4) scale(1.00002)" class="st2" cx="49.6" cy="21.4" rx=".3" ry=".3"/><path class="st2" d="M36.4 20c.2-.2.4-.2.6 0 .1.1.2-.1.1-.2-.3-.2-.6-.2-.9 0 0 .2.1.3.2.2z"/><path class="st2" d="M36.1 19.7c.4-.4.9-.4 1.3-.1.1.1.2-.1.1-.2-.5-.4-1.2-.4-1.6.1-.1.1.1.3.2.2z"/><path class="st2" d="M35.7 19.3c.6-.6 1.4-.6 2-.1.1.1.2-.1.1-.2-.7-.6-1.7-.5-2.3.1-.1.2.1.3.2.2z"/><ellipse transform="rotate(-2.944 36.705 20.303) scale(1.00002)" class="st2" cx="36.7" cy="20.3" rx=".1" ry=".1"/><g><path class="st2" d="M43.4 20.1c-.1 0-.1 0-.1-.1v-.7c0-.1 0-.1.1-.1s.1 0 .1.1v.7s0 .1-.1.1zM44 20c-.1 0-.1 0-.1-.1l-.1-1c0-.1 0-.1.1-.1s.1 0 .1.1l.1 1c0 .1-.1.1-.1.1zM44.5 20c-.1 0-.1 0-.1-.1l-.1-1.2c0-.1 0-.1.1-.1s.1 0 .1.1l.1 1.2s0 .1-.1.1zM45.1 20c-.1 0-.1 0-.1-.1l-.1-1.5c0-.1 0-.1.1-.1s.1 0 .1.1l.1 1.5-.1.1z"/></g><g><path class="st2" d="M53 19.5l-2.1.1c-.1 0-.2-.1-.3-.2v-.2h-.1c-.1 0-.2-.1-.3-.2v-.3c0-.1.1-.2.2-.2h.1v-.2c0-.1.1-.2.2-.2l2.1-.1c.1 0 .2.1.3.2l.1 1.2s-.1.1-.2.1zm-2.6-.9v.3h.1c.1 0 .2.1.3.2v.2l2.1-.1-.1-1.2-2.1.1v.2c.1.2 0 .3-.3.3z"/><path class="st2" d="M51.2 19.2c-.1 0-.1 0-.1-.1v-.7c0-.1 0-.1.1-.1s.1 0 .1.1v.7c0 .1 0 .1-.1.1zM51.7 19.2c-.1 0-.1 0-.1-.1v-.7c0-.1 0-.1.1-.1s.1 0 .1.1v.7l-.1.1zM52.1 19.2c-.1 0-.1 0-.1-.1v-.7c0-.1 0-.1.1-.1s.1 0 .1.1v.7s0 .1-.1.1zM52.6 19.1c-.1 0-.1 0-.1-.1v-.7c0-.1 0-.1.1-.1s.1 0 .1.1v.7c0 .1 0 .1-.1.1z"/></g><path class="st5" d="M49.2 63l-2.8.1c-.1 0-.3-.1-.3-.2s.1-.2.2-.3l2.8-.1c.1 0 .3.1.3.2s0 .3-.2.3z"/><path class="st11" d="M56.8 60.5l-20.3 1c-2 .1-3.7-1.4-3.8-3.3l-2.1-40.8c-.1-1.9 1.4-3.6 3.4-3.7l20.3-1c2-.1 3.7 1.4 3.8 3.3l2.1 40.8c0 2-1.5 3.6-3.4 3.7zM34 13.8c-1.9.1-3.4 1.7-3.3 3.6l2.1 40.8c.1 1.9 1.7 3.3 3.6 3.2l20.3-1c1.9-.1 3.4-1.7 3.3-3.6L57.9 16c-.1-1.9-1.7-3.3-3.6-3.2l-20.3 1z"/><path class="st5" d="M60.8 14.8c-.1 0-.1 0-.2-.1s-.1-.2 0-.3l1.4-1.5c.1-.1.2-.1.3 0s.1.2 0 .3L61 14.7c-.1.1-.1.1-.2.1z"/><g><path class="st2" d="M44.6 54.3c-.1 0-.2-.1-.2-.2.2-.8.8-1.4 1.6-1.7.1 0 .2 0 .2.1s0 .2-.1.2c-.7.3-1.2.8-1.4 1.5 0 .1 0 .1-.1.1z"/><path class="st2" d="M43.9 54.3c-.1 0-.2-.1-.2-.2.2-1.2 1.1-2.1 2.3-2.5.1 0 .2 0 .2.1s0 .2-.1.2c-1.1.3-1.9 1.2-2.1 2.3 0 .1 0 .1-.1.1zM45.3 54.3c-.1-.1-.2-.1-.1-.2.2-.4.5-.8.9-1 .1 0 .2 0 .2.1s0 .2-.1.2c-.3.2-.6.5-.8.8 0 .1 0 .1-.1.1z"/><path class="st2" d="M47.2 57.8c-1.4.1-2.7-.9-2.9-2.3 0-.2 0-.3.1-.5.1-.1.2-.2.4-.2s.4.1.5.5c0 .2.2.4.4.5.3.2.6.5.4 1 0 .1-.1.1-.2.1s-.1-.1-.1-.2c.2-.4 0-.5-.3-.7-.2-.2-.5-.3-.5-.7-.1-.3-.2-.3-.2-.3-.1 0-.1 0-.2.1 0 .1-.1.1-.1.2.2 1.3 1.4 2.2 2.8 2.1 1.2-.1 2.2-1.2 2.2-2.5s-.9-2.4-2.2-2.5c-.2 0-.4.1-.4.3 0 .1 0 .3.1.4.2 0 .9.2.9.7 0 .2-.1.3-.1.4-.2.1-.4.1-.4.1-.3 0-.4 0-.6.1-.1.1-.1.1-.1.3 0 .4.1.4.3.5s.4.2.4.6c0 .4.3.8.4.8 0 0 .1-.1.2-.4.1-.5.1-.9.1-1.1 0-.1 0-.2.1-.3s.2-.1.3-.1h.6c.1 0 .2 0 .2.1s0 .2-.1.2c-.3.1-.5.1-.7 0h-.1v.1c0 .2 0 .6-.1 1.2.1.6-.2.7-.3.7-.4 0-.7-.6-.7-1 0-.2-.1-.3-.3-.3-.2-.1-.5-.3-.4-.8 0-.2.1-.4.2-.5.2-.1.4-.2.8-.2h.2V54c0-.2-.5-.4-.7-.4-.3-.2-.4-.5-.3-.8.1-.3.4-.5.7-.4 1.4.2 2.4 1.4 2.4 2.8s-1.1 2.6-2.5 2.8c0-.2-.1-.2-.2-.2z"/></g></g><g class="st1"><path class="st17" d="M22.9 69.7S30.1 65 24.8 55c-6.3 7.1-1.9 14.7-1.9 14.7z"/><path class="st5" d="M22.7 70.7l-.4-.7c0-.1-4.6-8.2 2-15.5l.7-.8.5.9c5.5 10.5-2.1 15.6-2.2 15.6l-.6.5zm1.9-14.4c-3.9 5.1-2.3 10.3-1.5 12.2 1.5-1.3 4.7-5.2 1.5-12.2z"/><path class="st17" d="M22.7 69.9s-4.1-7.5-14.5-3c6.6 6.8 14.5 3 14.5 3z"/><path class="st5" d="M17.4 71.6c-2.9 0-6.5-.9-9.7-4.3l-.7-.7.9-.4c10.9-4.7 15.4 3.2 15.4 3.3l.4.7-.7.3s-2.4 1.1-5.6 1.1zm-7.9-4.5c4.8 4.3 10.1 3.1 12.1 2.4-1.2-1.5-4.9-5-12.1-2.4z"/><path class="st17" d="M16.4 62.3s7.1-3.3 3.6-13c-6.6 5.5-3.6 13-3.6 13z"/><path class="st5" d="M16 63.2l-.3-.7c0-.1-3.1-8 3.8-13.8l.8-.7.3 1c3.6 10.2-3.9 13.9-4 13.9l-.6.3zm3.7-12.7c-4.1 4-3.4 8.8-2.9 10.7 1.5-1.1 4.8-4.2 2.9-10.7z"/><path class="st17" d="M16.2 62.4s-2.7-7.3-12.7-4.6c5 7.1 12.7 4.6 12.7 4.6z"/><path class="st5" d="M13.1 63.5c-2.9 0-7-.9-10.2-5.3l-.6-.8 1-.3c10.5-2.9 13.5 4.9 13.6 5l.3.7-.7.2c-.1.1-1.5.5-3.4.5zm-8.3-5.2c3.7 4.4 8.5 4 10.4 3.7-1-1.7-3.8-5.1-10.4-3.7z"/><path class="st17" d="M11.7 54.1s6.8-1.4 5.8-10.5c-6.9 3.4-5.8 10.5-5.8 10.5z"/><path class="st5" d="M11.1 54.9l-.1-.7c0-.1-1.1-7.6 6.2-11.3l.9-.5.1 1c1 9.7-6.3 11.3-6.4 11.3l-.7.2zm5.7-10.2c-4.1 2.6-4.5 6.6-4.5 8.4 1.6-.6 4.8-2.6 4.5-8.4z"/><path class="st17" d="M11.5 54.2s-.9-6.9-10-6.6c2.8 7.1 10 6.6 10 6.6z"/><path class="st5" d="M11.2 54.9c-1.5 0-7.7-.4-10.4-7l-.4-1h1c9.7-.3 10.8 7.1 10.8 7.2l.1.7-.8.1h-.3zm-8.7-6.6c2.2 4.2 6.2 5 8 5.1-.5-1.6-2.2-4.9-8-5.1z"/><path class="st17" d="M9.6 45.3s6.4-.6 6.5-9.1c-6.7 2.4-6.5 9.1-6.5 9.1z"/><path class="st5" d="M8.9 46.1v-.8c0-.1-.2-7.2 7-9.8l1-.4v1c-.1 9.2-7.1 9.9-7.2 9.9l-.8.1zm6.5-8.8c-3.9 1.9-4.8 5.5-5 7.1 1.5-.5 4.5-2 5-7.1z"/><path class="st17" d="M9.4 45.3s-.1-6.5-8.6-7.2c2 7 8.6 7.2 8.6 7.2z"/><path class="st5" d="M10.2 46.1h-.8c-.1 0-7.2-.4-9.3-7.7l-.3-1 1 .1c9.1.7 9.3 7.8 9.3 7.9l.1.7zM1.9 39c1.6 4.1 5.1 5.2 6.7 5.5C8.3 43 7 39.8 1.9 39z"/><path class="st17" d="M9.1 36.1s5.7 1 7.8-6.4c-6.5.6-7.8 6.4-7.8 6.4z"/><path class="st5" d="M9.7 36.9h-.8l-.7-.1.2-.8c0-.1 1.6-6.4 8.4-7l1-.1-.3 1c-1.7 6.3-6 7-7.8 7zm6.1-6.3c-3.7.8-5.2 3.5-5.8 4.9 1.5-.1 4.3-.8 5.8-4.9z"/><g><path class="st17" d="M8.9 36.1s1.4-5.6-5.8-8.3c0 6.5 5.8 8.3 5.8 8.3z"/><path class="st5" d="M9.4 37l-.7-.2c-.1 0-6.2-2-6.3-8.9v-1l1 .3c7.8 2.8 6.3 9 6.3 9.1l-.3.7zm-5.6-8c.5 3.7 3.1 5.5 4.4 6.1.1-1.4-.4-4.3-4.4-6.1z"/></g><g><path class="st17" d="M10.7 27.5s5.3 1.8 8.4-4.9c-6.2-.4-8.4 4.9-8.4 4.9z"/><path class="st5" d="M12.4 28.5c-1.1 0-1.9-.2-1.9-.3l-.7-.3.3-.7c0-.1 2.5-5.8 9.1-5.3l1 .1-.4.9c-2.2 4.7-5.4 5.6-7.4 5.6zm-.6-1.5c1.4.1 4.1-.1 6.1-3.7-3.4.2-5.3 2.5-6.1 3.7z"/></g><g><path class="st17" d="M10.5 27.5s2.2-5.1-4.2-8.7c-.9 6.1 4.2 8.7 4.2 8.7z"/><path class="st5" d="M10.9 28.5l-.7-.3c-.1 0-5.6-2.9-4.6-9.5l.2-1 .9.5c7 3.9 4.6 9.6 4.5 9.6l-.3.7zm-4-8.5c-.1 3.5 2 5.5 3.2 6.4.3-1.4.2-4.1-3.2-6.4z"/></g><g><path class="st17" d="M14.4 19s4.7 3 9.2-2.9c-5.9-1.9-9.2 2.9-9.2 2.9z"/><path class="st5" d="M17.4 20.4c-2 0-3.3-.8-3.4-.8l-.6-.4.4-.6c0-.1 3.7-5.1 10-3.2l1 .3-.6.8c-2.4 3.1-4.9 3.9-6.8 3.9zm-1.8-1.7c1.3.4 4 .8 6.8-2.2-3.5-.6-5.8 1.2-6.8 2.2z"/></g><g><path class="st17" d="M14.2 18.9s3.3-4.5-2.2-9.4c-2.2 5.7 2.2 9.4 2.2 9.4z"/><path class="st5" d="M14.4 19.9l-.6-.5S9 15.3 11.4 9.2l.4-1 .8.7c5.9 5.3 2.3 10.3 2.3 10.4l-.5.6zm-2.1-9.1c-.9 3.4.7 5.8 1.7 6.9.6-1.2 1.2-3.9-1.7-6.9z"/></g><g><path class="st17" d="M18.7 12.8s4.4 3.2 9.2-2.3c-5.7-2.1-9.2 2.3-9.2 2.3z"/><path class="st5" d="M21.9 14.4c-2.2 0-3.6-1-3.6-1l-.6-.4.5-.6s3.9-4.8 10-2.5l1 .4-.8.7c-2.4 2.6-4.7 3.4-6.5 3.4zm-2-1.8c1.2.5 3.8 1 6.7-1.7-3.3-.8-5.7.7-6.7 1.7z"/></g><g><path class="st17" d="M22.4 7.9s5.4.2 6.4-7c-5.9 1.4-6.4 7-6.4 7z"/><path class="st5" d="M22.4 8.6h-.8l.1-.8c0-.1.6-6.1 6.9-7.6l1-.2-.1 1c-1 7.5-6.6 7.6-7.1 7.6zM27.9 2c-3.1 1.2-4.2 3.8-4.6 5.1 1.3-.3 3.7-1.3 4.6-5.1z"/></g><g><path class="st17" d="M18.5 12.7s3.5-4.2-1.6-9.3c-2.5 5.5 1.6 9.3 1.6 9.3z"/><path class="st5" d="M18.6 13.7l-.6-.5s-4.5-4.3-1.7-10.1l.4-.9.7.7c5.5 5.5 1.7 10.2 1.6 10.3l-.4.5zm-1.4-9c-1 3.2.4 5.6 1.2 6.8.6-1.2 1.3-3.7-1.2-6.8z"/></g><path class="st5" d="M24.1 72c-9.8-9.2-15-19.4-15.4-30.6C8.1 22.3 22.2 7.1 22.3 6.9l1 1c-.1.2-13.7 14.9-13.1 33.5.4 10.7 5.4 20.7 14.9 29.6l-1 1z"/></g><g class="st1"><path class="st17" d="M71 69.7S63.8 65 69.1 55c6.3 7.1 1.9 14.7 1.9 14.7z"/><path class="st5" d="M70.6 70.3c-.1-.1-7.6-5.1-2.2-15.6l.5-.9.7.8c6.6 7.3 2 15.4 2 15.5l-.4.7-.6-.5zm.1-1.7c.8-1.9 2.4-7.2-1.5-12.2-3.2 6.9 0 10.8 1.5 12.2z"/><path class="st17" d="M71.1 69.9s4.1-7.5 14.5-3c-6.5 6.8-14.5 3-14.5 3z"/><path class="st5" d="M70.8 70.5l-.7-.3.4-.7c0-.1 4.5-8 15.4-3.3l.9.4-.7.7c-3.2 3.4-6.8 4.3-9.7 4.3-3.2 0-5.5-1.1-5.6-1.1zm1.4-1c2 .7 7.3 1.9 12.1-2.4-7.2-2.6-10.8.9-12.1 2.4z"/><path class="st17" d="M77.4 62.3s-7.1-3.3-3.6-13c6.6 5.5 3.6 13 3.6 13z"/><path class="st5" d="M77.1 62.9c-.1 0-7.6-3.7-4-13.9l.3-1 .8.7c6.9 5.8 3.8 13.8 3.8 13.8l-.3.7-.6-.3zm-.1-1.7c.5-1.9 1.2-6.6-2.9-10.7-1.8 6.5 1.4 9.6 2.9 10.7z"/><path class="st17" d="M77.6 62.4s2.7-7.3 12.7-4.6c-5 7.1-12.7 4.6-12.7 4.6z"/><path class="st5" d="M77.4 63.1l-.7-.2.3-.7c0-.1 3.1-7.9 13.6-5l1 .3-.6.8c-3.1 4.4-7.3 5.3-10.2 5.3-2-.1-3.4-.5-3.4-.5zm1.3-1.2c1.9.4 6.7.7 10.4-3.7-6.6-1.3-9.5 2.1-10.4 3.7z"/><path class="st17" d="M82.2 54.1s-6.8-1.4-5.8-10.5c6.8 3.4 5.8 10.5 5.8 10.5z"/><path class="st5" d="M82 54.8c-.1 0-7.4-1.6-6.4-11.3l.1-1 .9.5c7.2 3.6 6.2 11.2 6.2 11.3l-.1.7-.7-.2zm-.5-1.7c0-1.8-.4-5.8-4.5-8.4-.2 5.8 3 7.8 4.5 8.4z"/><path class="st17" d="M82.4 54.2s.9-6.9 10-6.6c-2.9 7.1-10 6.6-10 6.6z"/><path class="st5" d="M82.3 54.9l-.8-.1.1-.7c0-.1 1.1-7.5 10.8-7.2h1l-.4 1c-2.7 6.6-9 7-10.4 7h-.3zm1-1.5c1.8-.1 5.8-.9 8-5.1-5.7.2-7.5 3.5-8 5.1z"/><path class="st17" d="M84.2 45.3s-6.4-.6-6.5-9.1c6.8 2.4 6.5 9.1 6.5 9.1z"/><path class="st5" d="M84.2 46c-.1 0-7.1-.7-7.1-9.8v-1l1 .4c7.1 2.6 7 9.8 7 9.8v.8l-.9-.2zm-.7-1.6c-.2-1.6-1-5.2-5-7.1.4 5.1 3.5 6.6 5 7.1z"/><path class="st17" d="M84.4 45.3s.1-6.5 8.6-7.2c-1.9 7-8.6 7.2-8.6 7.2z"/><path class="st5" d="M83.7 45.3c0-.1.2-7.1 9.3-7.9l1-.1-.3 1c-2.1 7.3-9.2 7.7-9.3 7.7h-.8l.1-.7zm1.5-.8c1.6-.3 5.1-1.4 6.7-5.5-5 .8-6.3 4-6.7 5.5z"/><path class="st17" d="M84.8 36.1s-5.7 1-7.8-6.4c6.4.6 7.8 6.4 7.8 6.4z"/><path class="st5" d="M76.3 29.9l-.3-1 1 .1c6.9.6 8.4 6.9 8.4 7l.2.7-.7.1h-.8c-1.7.1-6-.6-7.8-6.9zm7.5 5.6c-.6-1.4-2.1-4.1-5.8-4.9 1.6 4.1 4.4 4.8 5.8 4.9z"/><g><path class="st17" d="M85 36.1s-1.4-5.6 5.8-8.3c-.1 6.5-5.8 8.3-5.8 8.3z"/><path class="st5" d="M84.3 36.3c0-.1-1.5-6.3 6.3-9.1l1-.3v1c-.1 6.9-6.3 8.9-6.3 8.9l-.8.2-.2-.7zm1.3-1.2c1.4-.7 4-2.4 4.4-6.1-4 1.8-4.5 4.7-4.4 6.1z"/></g><g><path class="st17" d="M83.1 27.5s-5.3 1.8-8.4-4.9c6.2-.4 8.4 4.9 8.4 4.9z"/><path class="st5" d="M74.1 22.9l-.4-.9 1-.1c6.6-.5 9.1 5.3 9.1 5.3l.3.7-.7.3s-.8.3-1.9.3c-2 0-5.2-.9-7.4-5.6zm1.8.4c2 3.6 4.8 3.8 6.1 3.7-.7-1.2-2.6-3.5-6.1-3.7z"/></g><g><path class="st17" d="M83.3 27.5s-2.2-5.1 4.2-8.7c1 6.1-4.2 8.7-4.2 8.7z"/><path class="st5" d="M82.7 27.8c0-.1-2.4-5.8 4.5-9.6l.9-.5.2 1c1 6.6-4.6 9.4-4.6 9.5l-.7.3-.3-.7zm1-1.4c1.2-.9 3.3-2.9 3.2-6.4-3.4 2.3-3.4 5-3.2 6.4z"/></g><g><path class="st17" d="M79.5 19s-4.7 3-9.2-2.9c5.8-1.9 9.2 2.9 9.2 2.9z"/><path class="st5" d="M69.7 16.5l-.7-.8 1-.3c6.3-2 10 3.1 10 3.2l.4.6-.6.4s-1.4.8-3.4.8c-1.8 0-4.3-.8-6.7-3.9zm1.8 0c2.8 3 5.5 2.7 6.8 2.2-1-1-3.3-2.8-6.8-2.2z"/></g><g><path class="st17" d="M79.6 18.9s-3.3-4.5 2.2-9.4c2.3 5.7-2.2 9.4-2.2 9.4z"/><path class="st5" d="M79.1 19.3c0-.1-3.6-5.1 2.3-10.4l.8-.7.4 1c2.4 6.2-2.4 10.2-2.4 10.2l-.6.5-.5-.6zm.7-1.6c1-1.1 2.6-3.5 1.7-6.9-2.8 3-2.2 5.7-1.7 6.9z"/></g><g><path class="st17" d="M75.2 12.8S70.8 16 66 10.5c5.7-2.1 9.2 2.3 9.2 2.3z"/><path class="st5" d="M65.5 11l-.7-.8 1-.4c6.1-2.3 9.9 2.4 10 2.5l.5.6-.6.4s-1.5 1-3.6 1c-2 .1-4.3-.7-6.6-3.3zm1.8-.2c2.9 2.7 5.4 2.2 6.7 1.7-1.1-.9-3.4-2.4-6.7-1.7z"/></g><g><path class="st17" d="M71.4 7.9s-5.4.2-6.4-7c6 1.4 6.4 7 6.4 7z"/><path class="st5" d="M64.4 1l-.1-1 1 .2c6.3 1.5 6.9 7.5 6.9 7.6l.1.8h-.8c-.5 0-6.2-.1-7.1-7.6zm6.2 6.1c-.4-1.4-1.4-4-4.6-5.1.8 3.8 3.3 4.8 4.6 5.1z"/></g><g><path class="st17" d="M75.3 12.7s-3.5-4.2 1.6-9.3c2.5 5.5-1.6 9.3-1.6 9.3z"/><path class="st5" d="M74.8 13.1s-3.9-4.7 1.6-10.3l.7-.7.4.9c2.7 5.9-1.7 10.1-1.7 10.1l-.6.5-.4-.5zm.6-1.6c.9-1.1 2.2-3.6 1.2-6.8-2.4 3.1-1.8 5.6-1.2 6.8z"/></g><path class="st5" d="M69.7 72c9.8-9.2 15-19.4 15.4-30.6.7-19.1-13.4-34.3-13.6-34.5l-1 1c.1.1 13.8 14.9 13.2 33.5-.4 10.7-5.4 20.7-14.9 29.6l.9 1z"/></g></g><path class="st18" d="M24.2 34.4c0 .2-1.5.3-1.6.4-.1.1-.3 1.7-.4 1.7-.2 0-.3-1.6-.4-1.7-.1-.1-1.6-.2-1.6-.4s1.6-.3 1.7-.4c.1-.1.3-1.6.4-1.6.2 0 .3 1.6.4 1.7 0 0 1.5.1 1.5.3zM12.6 53.8c0 .1-1.3.3-1.4.3-.1.1-.2 1.4-.4 1.4-.1 0-.3-1.3-.4-1.4-.1-.1-1.4-.2-1.4-.3 0-.1 1.3-.3 1.4-.4.1-.1.2-1.4.3-1.4.1 0 .3 1.3.4 1.4.2.2 1.5.3 1.5.4zM28.8 55.6c0 .1-1.1.2-1.2.3-.1.1-.2 1.2-.3 1.2s-.2-1.1-.3-1.2c-.1-.1-1.2-.2-1.2-.3 0-.1 1.1-.2 1.2-.3.1-.1.2-1.2.3-1.2.1 0 .2 1.1.3 1.2.2.1 1.2.2 1.2.3zM65.8 19.4c0 .1-.6.1-.6.1s-.1.6-.2.6-.1-.6-.2-.6l-.6-.1c0-.1.6-.1.6-.2l.1-.6c.1 0 .1.6.2.6.2.1.7.1.7.2zM67.8 48.1c0 .1-.6.1-.6.1s-.1.6-.2.6-.1-.6-.2-.6l-.6-.1c0-.1.6-.1.6-.2l.1-.6c.1 0 .1.6.2.6.1.1.7.1.7.2zM56.5 18.6c0 .1-.6.1-.6.1s-.1.6-.2.6-.1-.6-.2-.6l-.6-.1c0-.1.6-.1.6-.2l.1-.6c.1 0 .1.6.2.6.1.1.7.2.7.2zM21.6 8.4c0 .1-.6.1-.6.1s-.1.6-.2.6-.1-.6-.2-.6l-.6-.1c0-.1.6-.1.6-.2l.1-.6c.1 0 .1.6.2.6.1.1.7.2.7.2zM70 11.1c0 .1-1.3.3-1.4.4-.1.1-.2 1.4-.4 1.4-.1 0-.3-1.3-.4-1.4-.1-.1-1.4-.2-1.4-.4 0-.1 1.3-.3 1.4-.4.1-.1.2-1.4.4-1.4s.3 1.3.4 1.5c0 0 1.4.1 1.4.3zM68.2 31.1c0 .1-.9.2-.9.2-.1.1-.1.9-.2.9s-.2-.9-.2-.9c-.1-.1-.9-.1-.9-.2s.9-.2.9-.2c.1-.1.1-.9.2-.9s.2.9.3 1c-.1 0 .8 0 .8.1z"/></svg>