<svg id="Calque_1" xmlns="http://www.w3.org/2000/svg" viewBox="0 0 50 50"><style>.st0{fill:#38B795;} .st1{fill:#FFFFFF;} .st2{fill:none;stroke:#FFFFFF;stroke-width:0.75;stroke-miterlimit:10;}</style><path class="st0" d="M43.8 21.4h-7.7v-4.2c0-1.2-1-2.2-2.2-2.2H12.8c-1.2 0-2.2 1-2.2 2.2v4.4H7.2c-.7 0-1.3.6-1.3 1.3v10.9c0 1.2 1 2.2 2.2 2.2h4.3c1.2 0 2.2-1 2.2-2.2v-1h6V34c0 .4-.3.6-.6.6h-2.1c-.3 0-.6.2-.7.5-.2.5.1.9.5.9H29c.3 0 .6-.2.7-.5.1-.4-.2-.7-.6-.7h-2.2c-.4 0-.6-.3-.6-.6V33h6.9v1.1c0 1.2 1 2.2 2.2 2.2h8.5c.8 0 1.5-.7 1.5-1.5V22.9c-.1-.8-.8-1.5-1.6-1.5z"/><path class="st1" d="M25 50C11.2 50 0 38.8 0 25S11.2 0 25 0s25 11.2 25 25-11.2 25-25 25zm0-49C11.8 1 1 11.8 1 25s10.8 24 24 24 24-10.8 24-24S38.2 1 25 1z"/><path class="st2" d="M43.8 36h-8.9c-.9 0-1.6-.7-1.6-1.6V22.9c0-.9.7-1.6 1.6-1.6h8.9c.9 0 1.6.7 1.6 1.6v11.5c-.1.9-.8 1.6-1.6 1.6zM45.3 33.4h-12M45.3 23.4h-12"/><circle class="st2" cx="39.3" cy="22.4" r=".2"/><circle class="st1" cx="39.3" cy="34.7" r=".7"/><g><path class="st2" d="M13.3 36H6.9c-.6 0-1.2-.5-1.2-1.2V22.9c0-.6.5-1.2 1.2-1.2h6.3c.6 0 1.2.5 1.2 1.2v11.9c0 .6-.5 1.2-1.1 1.2z"/><path class="st1" d="M10.9 23.3H9.3c-.1 0-.2-.1-.2-.2s.1-.2.2-.2h1.5c.1 0 .2.1.2.2.1.1 0 .2-.1.2z"/><path class="st2" d="M5.8 23.9h8.6M5.8 33.2h8.6"/><circle class="st1" cx="10.1" cy="34.7" r=".7"/></g><g><path class="st2" d="M33.3 32.9H14.4M10.5 21.7v-4.6c0-1.1.9-2.1 2.1-2.1h21.2c1.1 0 2.1.9 2.1 2.1v4.2M10.5 17.6h25.4"/><circle class="st2" cx="23.2" cy="16.4" r=".3"/><path class="st2" d="M20.4 32.8V34c0 .4-.3.6-.6.6h-2.2c-.4 0-.6.3-.6.6 0 .4.3.6.6.6h11.3c.4 0 .6-.3.6-.6 0-.4-.3-.6-.6-.6h-2.2c-.4 0-.6-.3-.6-.6v-1.2"/></g></svg>