<svg xmlns="http://www.w3.org/2000/svg" viewBox="0 0 94 72"><style>.st0{display:none;} .st1{display:inline;} .st2{fill:#FFFFFF;} .st3{fill:#EA2736;} .st4{fill:#3D62A9;} .st5{fill:#231F20;} .st6{fill:#E6E7E7;} .st7{fill:#8ED5E9;} .st8{fill:#AFE0EF;} .st9{display:inline;fill:#231F20;} .st10{fill:#EFE859;} .st11{fill:#6D6E70;} .st12{fill:#404041;} .st13{fill:#FABC4A;}</style><g id="Calque_1" class="st0"><g class="st1"><path class="st2" d="M20.9 56.3c11.4-14.1 24.4 10 41.5 13.7s23.8 1.9 30.1-11.5c0 0 5.6-11-7.1-14-9.3-1.9-9.3 7.4-21 7.5-6.2.3-12.1-4.4-12.1-4.4l7.4 6.3-8.6-1.7s11.4 8.9 23.6 2.3 13.1-2.9 14.2-.5.4 9.1-10.3 12.6S58 64.3 46.2 55s-23.6-12.9-31.3-1.3"/><path class="st2" d="M72.4 68.8c-3.5 0-7.3-.7-11.6-2-4.7-1.5-10.3-5.4-15.7-9.2-4.6-3.3-9.4-6.7-13.5-8.3l.2-.5c4.1 1.7 8.9 5.1 13.6 8.4 5.3 3.8 10.9 7.7 15.5 9.1 13.1 4.1 22.4 1.8 28.3-7.1 1.5-2.5 1.2-6.2-.6-8.2-1.8-2-4.9-2.1-8.7-.3-10.1 5-16.3 6.7-24.3 2.8l.4-.5c7.8 3.8 13.9 2.1 23.8-2.8 5.4-2.7 8.2-.9 9.3.4 2 2.2 2.3 6.2.7 8.9-4.2 6.2-9.9 9.3-17.4 9.3z"/><path class="st2" d="M73.9 70.5c-8.4 0-17.5-4.1-21.5-6.6-.2-.2-19.2-15.3-25.7-13.5l-.2-.4c6.8-1.8 25.4 12.9 26.2 13.6C58.9 67.3 77 75 86 65.4c5.5-5.8 6.1-10 5.7-12.4-.4-2.2-1.9-4.1-4.2-5.2-3.1-1.5-7.7.8-12.2 3.1-2.3 1-4.4 2.1-6.3 2.7-5.8 1.7-11.5-1.2-11.7-1.3l.3-.5c.1 0 5.7 3 11.3 1.3 1.9-.6 4-1.6 6.2-2.8 4.6-2.3 9.3-4.7 12.7-3.1 2.4 1.2 4 3.2 4.5 5.6.5 2.6-.2 6.9-5.8 12.9-3.4 3.6-7.9 4.8-12.6 4.8z"/><path class="st3" d="M14.9 53.4c7.8-11.6 19.5-8 31.3 1.3s21.6 15.1 32.3 11.6 11.3-10.2 10.3-12.6-2-6.1-14.2.5-22.5-1.8-22.5-1.8l3.6.5c8 3.9 14.3 2.1 24.1-2.8S92.7 54.5 90 59c-7.7 11.6-15 12-29.1 7.3-8.7-2.9-20.4-14-29.1-17.5"/><path class="st4" d="M20.9 56.4c11.4-14.1 24.4 10 41.5 13.7S86.2 72 92.5 58.6c0 0 5.6-11-7.1-14-9.3-1.9-9.3 7.4-21 7.5-6.2.3-12.1-4.4-12.1-4.4l5 4.3s5.8 3.1 11.5 1.3 13.9-8.2 18.7-5.8 7.4 8.7-1.4 18.1-26.4 2.6-33.6-1.8c0 0-19.2-15.3-25.9-13.5"/><path class="st5" d="M75 72c-3.5 0-7.7-.6-12.7-1.7-6.7-1.4-12.9-6.1-18.3-10.2-8.6-6.5-16.1-12.1-22.9-3.6l-.4-.3c7.1-8.8 14.8-3.1 23.6 3.5 5.4 4 11.5 8.6 18.1 10.1 17.7 3.8 23.8 1.5 29.8-11.4 0-.1 2.3-4.6.5-8.5-1.1-2.5-3.6-4.2-7.4-5.1-4.5-.9-6.8.9-9.4 3-2.6 2.1-5.6 4.5-11.5 4.6-3.4.1-6.6-1.1-8.9-2.3l5.2 4.5-8.3-1.7c3.1 2 12.5 6.8 22.2 1.5 5.8-3.2 9.7-4.3 11.9-3.6 1.5.5 2.1 1.8 2.5 2.9l.1.3c.5 1.1.6 3.1-.4 5.4-1.1 2.3-3.7 5.5-10.1 7.6-10.5 3.4-20.3-1.9-32.6-11.6-8.2-6.4-15.2-9.3-21-8.4-3.9.6-7.3 3-10 7l-.5-.3c2.8-4.2 6.3-6.6 10.3-7.3 5.9-.9 13.1 1.9 21.4 8.5C58.4 64.5 68 69.8 78.3 66.4c6.2-2 8.7-5.1 9.7-7.3 1-2.1.8-4 .4-4.9l-.1-.3c-.4-1-.9-2.1-2.2-2.6-2.1-.7-5.8.4-11.5 3.5-12.2 6.7-23.7-2.2-23.9-2.3l-.9-.7 8.7 1.8-6.6-5.6.3-.4c.1 0 5.9 4.6 11.9 4.3 5.7-.1 8.6-2.4 11.2-4.4 2.6-2.1 5.1-4.1 9.9-3.1 4 .9 6.6 2.7 7.8 5.4 1.9 4.2-.4 8.8-.5 9C88.1 68.5 83.2 72 75 72z"/></g><g class="st1"><path class="st6" d="M71 11.8c6.3-.4 12.6 4.9 13 11.3l1.6 22.5c.4 6.3-4.4 11.8-10.7 12.3l-50.4 3.5c-7.2.5-12.6-6.3-13-11.3"/><path class="st5" d="M74.9 58.3l-50.4 3.5c-7.6.5-13.1-6.7-13.5-11.7l.9-.1c.3 4.7 5.5 11.4 12.5 10.9l50.4-3.5c6.1-.4 10.7-5.7 10.2-11.8l-1.6-22.5C83.1 17 77.1 11.8 71 12.2l-.1-.9c6.6-.5 13 5.1 13.5 11.7L86 45.5c.4 6.6-4.6 12.3-11.1 12.8z"/><path class="st2" d="M80.8 21.9l1.5 21.6c.4 5.9-4.1 11.1-10 11.5l-49.6 3.4c-5.9.4-11.1-4.1-11.5-10L9.8 26.8c-.4-5.9 4.1-11.1 10-11.5l49.6-3.4c5.9-.4 11 4.1 11.4 10z"/><path class="st5" d="M73.1 55.4l-51 3.5c-5.8.4-10.8-4-11.2-9.7L9.3 26.1c-.4-5.8 4-10.8 9.7-11.2l51-3.5c5.8-.4 10.8 4 11.2 9.8l1.6 23.1c.5 5.7-3.9 10.7-9.7 11.1zm-54-39.6c-5.3.4-9.2 4.9-8.9 10.2l1.6 23.1c.4 5.3 4.9 9.2 10.2 8.9l51-3.5c5.3-.4 9.2-4.9 8.9-10.2l-1.6-23.1c-.4-5.3-4.9-9.2-10.2-8.9l-51 3.5z"/><path class="st7" d="M55.4 27.3l.9 12.3c.1 1.4-1 2.7-2.4 2.8l-12.3.9c-1.4.1-2.7-1-2.8-2.4l-.9-12.3c-.1-1.4 1-2.7 2.4-2.8l12.3-.9c1.2-.1 2.2.6 2.6 1.7.2.2.2.5.2.7z"/><path class="st8" d="M55.3 26.6L46 43l-4.4.3 6.3-18.1 4.7-.3c1.3-.1 2.3.6 2.7 1.7z"/><path class="st5" d="M54.8 42.8l-14.1 1c-1.2.1-2.3-.8-2.3-2l-1-14.1c-.1-1.2.8-2.3 2-2.3l14.1-1c1.2-.1 2.3.8 2.3 2l1 14.1c.1 1.2-.8 2.2-2 2.3zM39.5 26.3c-.7 0-1.2.7-1.2 1.3l1 14.1c0 .7.6 1.2 1.3 1.2l14.1-1c.7 0 1.2-.7 1.2-1.3l-1-14.1c0-.7-.6-1.2-1.3-1.2l-14.1 1zM55 58l-8 .6-.8-.7 8-.5z"/><path class="st5" d="M57.2 44.9l-18.6 1.3c-1.2.1-2.3-.8-2.3-2L35 25.6c-.1-1.2.8-2.3 2-2.3L55.6 22c1.2-.1 2.3.8 2.3 2l1.3 18.6c.1 1.2-.8 2.3-2 2.3zM37.1 24.1c-.7 0-1.2.6-1.2 1.3L37.2 44c0 .7.6 1.2 1.3 1.2L57.2 44c.7 0 1.2-.7 1.2-1.3L57 24c0-.7-.6-1.2-1.3-1.2l-18.6 1.3zM19.6 35.3c-.2-.1-.3-.2-.3-.4.4-1.5 1.6-2.8 3.1-3.4.1-.1.3 0 .4.2.1.1 0 .3-.2.4-1.3.5-2.3 1.6-2.7 3-.1.1-.2.2-.3.2z"/><path class="st5" d="M18.3 35.3s-.1 0 0 0c-.2 0-.3-.2-.3-.3.4-2.3 2.1-4.1 4.3-4.8.2 0 .3 0 .4.2 0 .2 0 .3-.2.4-2 .6-3.5 2.3-3.9 4.4-.1 0-.2.1-.3.1zM21 35.2h-.1c-.1-.1-.2-.2-.1-.4.4-.8 1-1.5 1.8-1.9.1-.1.3 0 .4.1.1.1 0 .3-.1.4-.7.4-1.2.9-1.5 1.6-.2.2-.3.2-.4.2z"/><path class="st5" d="M24.8 41.8c-2.7.2-5.1-1.7-5.6-4.3-.1-.3 0-.6.2-.9.2-.2.5-.4.8-.4.3 0 .8.1 1 .9.1.5.4.7.8 1 .5.4 1.2.9.7 2-.1.1-.2.2-.4.2-.1-.1-.2-.2-.2-.4.3-.7 0-.9-.5-1.3-.4-.3-.9-.6-1-1.3-.1-.5-.3-.5-.4-.5-.1 0-.2.1-.3.2-.1.1-.1.3-.1.4.5 2.5 2.8 4.2 5.3 3.9 2.4-.3 4.2-2.4 4.1-4.8 0-2.4-1.8-4.5-4.2-4.7-.4 0-.7.2-.8.5-.1.3-.1.6.3.8.3.1 1.7.4 1.8 1.3 0 .4-.1.6-.2.7-.3.3-.7.3-.8.3-.5 0-.9 0-1.1.2-.2.1-.2.3-.2.5 0 .7.2.8.6 1 .3.2.8.4.8 1.1 0 .7.6 1.4.8 1.4.1 0 .2-.2.3-.8.1-1.1.1-1.8.1-2.2 0-.2.1-.4.2-.6.2-.1.4-.2.6-.1.3.1.7.1 1.1 0 .2 0 .3 0 .4.2 0 .2 0 .3-.2.4-.5.2-1 .1-1.4 0h-.1s-.1.1 0 .1c0 .4 0 1.2-.1 2.3-.1 1.1-.6 1.3-.9 1.3-.7 0-1.3-1.1-1.4-2 0-.4-.2-.5-.5-.6-.4-.2-.9-.5-.9-1.5 0-.4.2-.7.4-.9.3-.3.8-.4 1.5-.3.1 0 .2 0 .3-.1.1-.1.1-.2.1-.3 0-.4-1-.7-1.4-.8l-.1-.1c-.5-.3-.8-.9-.6-1.5.2-.6.8-.9 1.4-.9 2.7.3 4.7 2.6 4.8 5.3 0 2.7-2 5-4.6 5.3h-.4zM70.4 36.8c-1.8.1-3.4-1.3-3.5-3.1-.1-.8.2-1.6.7-2.3.2-.2.5-.2.7-.1.2.2.2.5.1.7-.4.5-.6 1.1-.5 1.6.1 1.3 1.2 2.3 2.5 2.2s2.3-1.2 2.2-2.5c0-.6-.3-1.1-.7-1.6-.2-.2-.2-.5 0-.7.2-.2.5-.2.7 0 .6.6 1 1.3 1 2.2 0 1.9-1.3 3.5-3.2 3.6z"/><path class="st5" d="M70.2 32.8c-.3 0-.5-.2-.5-.4l-.2-2.2c0-.3.2-.5.4-.5.3 0 .5.2.5.4l.2 2.2c0 .3-.2.5-.4.5z"/></g><g class="st1"><path class="st2" d="M9.8 27.9C6.2 23.7 3 17.2 8.5 10.3 18-1.5 28.9 18.7 43.3 21.8s20 1.6 25.3-9.6c0 0 4.7-9.2-6-11.7-7.8-1.7-7.8 6.1-17.6 6.3-5.2.2-10.1-3.7-10.1-3.7l6.2 5.3-7.2-1.5s9.6 7.5 19.7 1.9 11-2.4 11.9-.5c.8 2 .3 7.7-8.6 10.6S39.6 17 29.8 9.2 10-1.6 3.5 8.1.4 27.5 11.2 34.9c0 0 .1-5.3-1.4-7z"/><path class="st2" d="M67.1 9.6c0 1.2-.3 2.4-.9 3.4-5.1 7.7-13 9.7-24.2 6.1-4-1.2-8.6-4.5-13.1-7.7-3.9-2.7-7.9-5.6-11.3-7-2.8-1.1-5.6-.9-8.2.6-3.8 2.1-6.6 6.7-7.5 12.2-.8 4.9 2.1 9.1 4.7 11.9 2.8 3 5.8 4.9 5.9 4.9l-.2.4c-.1-.1-12.3-7.6-10.7-17.2.8-5.7 3.6-10.4 7.5-12.6 2.8-1.6 5.8-1.8 8.7-.6 3.5 1.4 7.5 4.3 11.4 7 4.5 3.2 9.1 6.5 13 7.7 11 3.4 18.8 1.5 23.7-6 1.3-2.1 1-5.2-.5-6.9-1.5-1.7-4.1-1.8-7.3-.2-8.5 4.2-13.7 5.6-20.4 2.4l.2-.4c6.5 3.2 11.6 1.8 20-2.3 4.5-2.2 6.8-.8 7.8.3.9 1 1.4 2.5 1.4 4z"/><path class="st2" d="M68.4 8.6c0 2.2-1 5.4-5 9.6-7.8 8.3-23.2 1.7-28.5-1.5-.2-.1-16-12.7-21.5-11.2-2.9.8-6.7 3.4-8.6 7.5-1 2.1-1.7 5.4.1 9.2 1.7 3.6 3.7 6.3 5.3 8.1 1.9 2.2 1.8 2.6 0 .7-1.7-1.9-3.8-4.7-5.7-8.7-1.5-3.1-1.5-6.5-.1-9.6C6.1 9.1 9.6 6 13.3 5 19 3.5 34.5 15.8 35.2 16.4c5.2 3.1 20.3 9.6 27.9 1.6 4.6-4.9 5.1-8.4 4.7-10.4-.3-1.9-1.6-3.4-3.5-4.4-2.6-1.3-6.5.7-10.2 2.6-1.9 1-3.7 1.9-5.3 2.3C44 9.5 39.2 7 39 6.9l.2-.4S44 9 48.7 7.6c1.6-.5 3.3-1.4 5.2-2.3 3.8-1.9 7.8-4 10.6-2.6 2 1 3.4 2.7 3.7 4.7.2.4.2.8.2 1.2z"/><path class="st3" d="M37.8 7.5c6.7 3.3 12 1.7 20.2-2.3s10.4 3.7 8.1 7.5c-6.4 9.7-16.6 8.3-24 6S25 7 17.7 4 3.2 7.4 1.7 16.9c-1.1 7 5.1 12.9 8.5 15.6-.2.5.8.5.1 1.5C.2 26.7-2.8 17.3 3.5 7.9 10-1.8 19.9 1.2 29.8 9s18.1 12.6 27.1 9.7 9.5-8.6 8.6-10.6c-.8-2-1.7-5.1-11.9.5S34.8 7.1 34.8 7.1l3 .4z"/><path class="st4" d="M10.1 28.3C6.3 24 2.9 17.4 8.5 10.4 18-1.4 28.9 18.8 43.3 21.9s20 1.6 25.3-9.6c0 0 4.7-9.2-6-11.7C54.8-1 54.8 6.8 45 6.9c-5.2.2-10.1-3.7-10.1-3.7l4.2 3.6s4.8 2.6 9.6 1.1S60.4 1.1 64.4 3s6.2 7.3-1.2 15.2S41 20.3 35 16.7c0 0-16.1-12.9-21.7-11.3s-12.5 9-8.6 17c1.6 3.4 3.4 6 5 7.8 1.3 1.5.5.7.4-.1-.2-.6.1-1.7 0-1.8z"/><path class="st5" d="M69.8 7.7c0 2.4-1 4.4-1.1 4.5C63.2 24 57.3 25.1 43.2 22c-5.6-1.2-10.8-5.1-15.4-8.5-7.2-5.4-13.5-10.1-19.2-3-2.4 2.9-3.3 6-2.8 9.3.4 2.6 3.3 4.9 4.1 7.3 0 4 .6 7.8.4 7.6C-.3 27-2.9 17.3 3.3 8 5.7 4.5 8.6 2.5 12 1.9c5-.8 11 1.6 17.9 7.1 10.2 8.1 18.2 12.5 26.9 9.7 5.2-1.7 7.3-4.3 8.2-6.1.8-1.8.7-3.3.3-4.1l-.1-.2c-.3-.8-.7-1.8-1.8-2.2-1.7-.6-4.9.3-9.6 2.9-10.2 5.6-19.9-1.9-20-1.9l-.8-.6L40.3 8l-5.5-4.7.2-.4s4.9 3.8 10 3.6c4.8-.1 7.2-2 9.3-3.7C56.5 1 58.5-.6 62.6.2c3.4.8 5.6 2.3 6.6 4.5.4 1 .6 2.1.6 3zM5.3 18c0-2.7 1-5.4 3-7.9 6-7.4 12.4-2.6 19.8 3 4.5 3.4 9.7 7.2 15.2 8.4 14.8 3.2 20 1.2 25-9.5 0 0 1.9-3.9.4-7.1-1-2.1-3.1-3.5-6.2-4.2-3.8-.8-5.7.7-7.9 2.5C52.4 4.9 49.9 6.9 45 7c-2.8.1-5.5-.9-7.5-2l4.4 3.7-7-1.4C37.5 9 45.3 13 53.5 8.6c4.9-2.7 8.1-3.6 10-3 1.3.4 1.7 1.5 2.1 2.4l.1.2c.4.9.5 2.6-.3 4.5-.9 1.9-3.1 4.6-8.4 6.4-8.8 2.9-17-1.6-27.3-9.8-6.8-5.4-12.7-7.8-17.6-7-3.3.6-6.1 2.6-8.4 6-6 9-3.6 18.3 6.6 25.7.2.1-.3-.7-.3-2 0-1.2.6-2.8-.5-4.1-1.9-2.2-3.6-5-4.1-8.1-.1-.6-.1-1.2-.1-1.8z"/></g><path class="st9" d="M10.2 26l1.6 23.1-.9.1-1.6-23.1.9-.1z"/></g><g id="Calque_2" class="st0"><g class="st1"><path class="st10" d="M68.9 18.2l2.9-.2c.2 0 .4-.2.5-.4l1.1-2.7c.2-.5.9-.5 1.1 0l1.1 2.7c.1.2.3.3.5.4l2.9.2c.5 0 .7.7.3 1L77 21.1c-.2.1-.2.4-.2.6l.7 2.8c.1.5-.4.9-.9.6l-2.4-1.5c-.2-.1-.4-.1-.6 0l-2.5 1.5c-.4.3-1-.1-.9-.6l.7-2.8c.1-.2 0-.4-.2-.6l-2.2-1.9c-.3-.3-.1-1 .4-1zM15 17.7l2.9-.2c.2 0 .4-.2.5-.4l1.1-2.7c.2-.5.9-.5 1.1 0l1.1 2.7c.1.2.3.3.5.4l2.9.2c.5 0 .7.7.3 1l-2.2 1.9c-.2.1-.2.4-.2.6l.7 2.8c.1.5-.4.9-.9.6L20.2 23c-.2-.1-.4-.1-.6 0l-2.5 1.5c-.4.3-1-.1-.9-.6l.7-2.8c.1-.2 0-.4-.2-.6l-2.2-1.9c-.3-.3-.1-.9.5-.9zm4.1 28.2l-2.4-1.5c-.2-.1-.4-.1-.6 0l-2.5 1.5c-.4.3-1-.1-.9-.6l.7-2.8c.1-.2 0-.4-.2-.6L11.1 40c-.4-.3-.2-1 .3-1l2.9-.2c.2 0 .4-.2.5-.4l1.1-2.7c.2-.5.9-.5 1.1 0l1.1 2.7c.1.2.3.3.5.4l2.9.2c.5 0 .7.7.3 1l-2.2 1.9c-.2.1-.2.4-.2.6l.7 2.8c0 .5-.5.9-1 .6zM32 58.1L29.8 60c-.2.1-.2.4-.2.6l.7 2.8c.1.5-.4.9-.9.6L27 62.4c-.2-.1-.4-.1-.6 0l-2.5 1.5c-.4.3-1-.1-.9-.6l.7-2.8c.1-.2 0-.4-.2-.6L21.3 58c-.4-.3-.2-1 .3-1l2.9-.2c.2 0 .4-.2.5-.4l1.1-2.7c.2-.5.9-.5 1.1 0l1.1 2.7c.1.2.3.3.5.4l2.9.2c.5.1.7.8.3 1.1zM39.3 11l-2.4-1.5c-.2-.1-.4-.1-.6 0L33.7 11c-.4.3-1-.1-.9-.6l.7-2.8c.1-.2 0-.4-.2-.6l-2.2-1.9c-.4-.3-.2-1 .3-1l2.9-.2c.2 0 .4-.2.5-.4L36 .9c.2-.5.9-.5 1.1 0l1.1 2.7c.1.2.3.3.5.4l2.9.2c.5 0 .7.7.3 1L39.6 7c-.2.1-.2.4-.2.6l.7 2.8c.1.5-.4.9-.8.6zm13 54.6l-2.2 1.9c-.2.1-.2.4-.2.6l.7 2.8c.1.5-.4.9-.9.6L47.3 70c-.2-.1-.4-.1-.6 0l-2.5 1.5c-.4.3-1-.1-.9-.6l.7-2.8c.1-.2 0-.4-.2-.6l-2.2-1.9c-.4-.3-.2-1 .3-1l2.9-.2c.2 0 .4-.2.5-.4l1.1-2.7c.2-.5.9-.5 1.1 0l1.1 2.7c.1.2.3.3.5.4l2.9.2c.5 0 .7.6.3 1zm8.1-54.2L58 9.9c-.2-.1-.4-.1-.6 0l-2.5 1.5c-.4.3-1-.1-.9-.6l.7-2.8c.1-.2 0-.4-.2-.6l-2.2-1.9c-.4-.3-.2-1 .3-1l2.9-.2c.2 0 .4-.2.5-.4l1.1-2.7c.2-.5.9-.5 1.1 0L59.3 4c.1.2.3.3.5.4l2.9.2c.5 0 .7.7.3 1l-2.2 1.9c-.2.1-.2.4-.2.6l.7 2.8c.1.4-.5.8-.9.5zm12.1 46.5l-2.2 1.9c-.2.1-.2.4-.2.6l.7 2.8c.1.5-.4.9-.9.6l-2.4-1.5c-.2-.1-.4-.1-.6 0l-2.5 1.5c-.4.3-1-.1-.9-.6l.7-2.8c.1-.2 0-.4-.2-.6l-2.2-1.9c-.4-.3-.2-1 .3-1l2.9-.2c.2 0 .4-.2.5-.4l1.1-2.7c.2-.5.9-.5 1.1 0l1.1 2.7c.1.2.3.3.5.4l2.9.2c.4.1.7.7.3 1zm8.2-16.1c-.2.1-.2.4-.2.6l.7 2.8c.1.5-.4.9-.9.6l-2.4-1.5c-.2-.1-.4-.1-.6 0l-2.5 1.5c-.4.3-1-.1-.9-.6l.7-2.8c.1-.2 0-.4-.2-.6l-2.2-1.9c-.4-.3-.2-1 .3-1l2.9-.2c.2 0 .4-.2.5-.4l1.1-2.7c.2-.5.9-.5 1.1 0l1.1 2.7c.1.2.3.3.5.4l2.9.2c.5 0 .7.7.3 1l-2.2 1.9z"/><path class="st5" d="M50 72c-.2 0-.4-.1-.6-.2L47 70.3l-2.5 1.5c-.4.2-.8.2-1.2 0-.4-.3-.5-.7-.4-1.1l.7-2.8-2.2-2c-.3-.3-.5-.7-.3-1.1.1-.4.5-.7.9-.7l2.9-.2 1.2-2.7c.2-.4.6-.7 1-.7s.8.3 1 .7l1.1 2.7 2.8.1c.4 0 .8.3.9.7.1.4 0 .9-.3 1.1l-2.2 1.9.7 2.9c.1.4-.1.9-.4 1.1-.2.2-.4.3-.7.3zm-3-2.7c.2 0 .4.1.6.2L50 71l.1-.1-.7-2.8c-.1-.4 0-.8.4-1.1l2.2-1.9V65l-3-.3c-.4 0-.8-.3-.9-.7L47 61.3l-.6-.2.5.2-1.1 2.7c-.2.4-.5.6-.9.7L42 65v.2l2.2 1.9c.3.3.4.7.3 1.1l-.7 2.8h.2l2.5-1.5c.1-.1.3-.2.5-.2zm-17.3-4.8c-.2 0-.4-.1-.6-.2l-2.4-1.5-2.5 1.5c-.4.2-.8.2-1.2 0-.4-.3-.5-.7-.4-1.1l.7-2.8-2.2-2c-.3-.3-.5-.7-.3-1.2.1-.4.5-.7.9-.7l2.9-.2 1.2-2.7c.2-.4.6-.7 1-.7s.8.3 1 .7l1.1 2.7 2.9.3c.4 0 .8.3.9.7.1.4 0 .9-.3 1.1l-2.2 1.9.7 2.9c.1.4-.1.9-.4 1.1-.3.2-.5.2-.8.2zM26.6 54l-1.1 2.7c-.2.4-.5.6-.9.7l-2.9.2v.1l2.2 1.9c.3.3.4.7.3 1.1l-.7 2.8.4.5-.3-.4 2.5-1.5c.3-.2.8-.2 1.1 0l2.4 1.5.1-.1-.7-2.8c-.1-.4 0-.8.4-1.1l2.2-1.9v-.1l-3-.3c-.4 0-.8-.3-.9-.7l-.9-2.6h-.2zm43.6 10.4c-.2 0-.4-.1-.6-.2l-2.4-1.5-2.5 1.5c-.4.2-.8.2-1.2 0-.4-.3-.5-.7-.4-1.1l.7-2.8-2.2-2c-.3-.3-.5-.7-.3-1.2.1-.4.5-.7.9-.7l2.9-.2 1.2-2.7c.2-.4.6-.7 1-.7s.8.3 1 .7l1.1 2.7 2.9.3c.4 0 .8.3.9.7.1.4 0 .9-.3 1.1l-2.2 1.9.7 2.9c.1.4-.1.9-.4 1.1-.4.1-.6.2-.8.2zm-3.1-2.7c.2 0 .4.1.6.2l2.4 1.5.1-.1-.7-2.8c-.1-.4 0-.8.4-1.1l2.2-1.9v-.1l-3-.3c-.4 0-.8-.3-.9-.7l-1.1-2.7-.6-.2.5.2-1 2.8c-.2.4-.5.6-.9.7l-2.9.2v.2l2.2 1.9c.3.3.4.7.3 1.1l-.7 2.7.1.1 2.5-1.5c.1-.1.3-.2.5-.2zM19.5 46.5c-.2 0-.4-.1-.6-.2l-2.4-1.5-2.5 1.5c-.4.2-.8.2-1.2 0-.4-.3-.5-.7-.4-1.1l.7-2.8-2.2-2c-.3-.3-.5-.7-.3-1.2.1-.4.5-.7.9-.7l2.9-.2 1.2-2.7c.2-.4.6-.7 1-.7s.8.3 1 .7l1.1 2.7 2.9.3c.4 0 .8.3.9.7.1.4 0 .9-.3 1.1L20 42.3l.7 2.9c.1.4-.1.9-.4 1.1-.4.1-.6.2-.8.2zm-8.1-6.9l2.2 1.9c.3.3.4.7.3 1.1l-.7 2.8.4.5-.3-.4 2.5-1.5c.3-.2.8-.2 1.1 0l2.4 1.5h.1l-.6-2.9c-.1-.4 0-.8.4-1.1l2.2-1.9v-.2l-2.9-.2c-.4 0-.8-.3-.9-.7L16.5 36l-.6-.2.5.2-1.1 2.7c-.2.4-.5.6-.9.7l-2.9.2-.4.4.3-.4zm69.2 6.8c-.2 0-.4-.1-.6-.2l-2.4-1.5-2.5 1.5c-.4.2-.8.2-1.2 0-.4-.3-.5-.7-.4-1.1l.7-2.8-2.2-2c-.3-.3-.5-.7-.3-1.2.1-.4.5-.7.9-.7l2.9-.2 1.2-2.7c.2-.4.6-.7 1-.7s.8.3 1 .7l1.1 2.7 2.9.3c.4 0 .8.3.9.7.1.4 0 .9-.3 1.2L81 42.2v.1l.7 2.8c.1.4-.1.9-.4 1.1-.2.1-.4.2-.7.2zm-8-6.9l2.2 1.9c.3.3.4.7.3 1.1l-.7 2.8.4.5-.3-.4 2.5-1.5c.3-.2.8-.2 1.1 0l2.4 1.5.1-.1-.6-2.8c-.1-.4 0-.8.4-1.1l2.2-1.9v-.2l-2.9-.2c-.4 0-.8-.3-.9-.7l-1.1-2.7-.6-.2.5.2-1.1 2.7c-.2.4-.5.6-.9.7l-2.9.2-.4.5.3-.3zM77 25.7c-.2 0-.4-.1-.6-.2L73.9 24l-2.5 1.5c-.4.2-.8.2-1.2 0-.4-.3-.5-.7-.4-1.1l.7-2.8-2.2-2c-.3-.3-.5-.7-.3-1.2.1-.4.5-.7.9-.7l2.9-.2 1.2-2.7c.2-.4.6-.7 1-.7s.8.3 1 .7l1.1 2.7 2.9.3c.4 0 .8.3.9.7.1.4 0 .9-.3 1.1l-2.2 1.9.7 2.9c.1.4-.1.9-.4 1.1-.3.1-.5.2-.7.2zm-3.6-10.8l.5.2-1.1 2.7c-.2.4-.5.6-.9.7l-2.9.2s-.1 0-.1.1l2.2 2c.3.3.4.7.3 1.1l-.7 2.8.4.5-.3-.4 2.5-1.5c.3-.2.8-.2 1.1 0l2.4 1.5.1-.1-.7-2.8c-.1-.4 0-.8.4-1.1l2.2-1.9v-.2l-2.8-.2c-.4 0-.8-.3-.9-.7L74 15.1l-.6-.2zM23 25.1c-.2 0-.4-.1-.6-.2L20 23.5 17.4 25c-.4.2-.8.2-1.2 0-.4-.3-.5-.7-.4-1.1l.7-2.8-2.2-2c-.3-.3-.5-.7-.3-1.2.1-.4.5-.7.9-.7l2.9-.2 1.2-2.7c.2-.4.6-.7 1-.7s.8.3 1 .7l1.1 2.7 2.9.3c.4 0 .8.3.9.7.1.4 0 .9-.3 1.1L23.4 21l.7 2.9c.1.4-.1.9-.4 1.1-.3.1-.5.1-.7.1zm-3.1-2.6c.2 0 .4.1.6.2l2.4 1.5.1-.1-.7-2.8c-.1-.4 0-.8.4-1.1l2.2-1.9v-.6.5L22 18c-.4 0-.8-.3-.9-.7L20 14.6l-.6-.2.5.2-1.1 2.7c-.2.4-.5.6-.9.7l-2.9.1s-.1 0-.1.1l2.2 2c.3.3.4.7.3 1.1l-.6 2.7.1.1 2.5-1.5c.1-.1.3-.1.5-.1zM60.7 12c-.2 0-.4-.1-.6-.2l-2.4-1.5-2.5 1.5c-.4.2-.8.2-1.2 0-.4-.3-.5-.7-.4-1.1l.7-2.8-2.2-2c-.3-.3-.5-.7-.3-1.2.1-.4.5-.7.9-.7l2.9-.2 1.2-2.7c.2-.4.6-.7 1-.7s.8.3 1 .7l1.1 2.7 2.8.2c.4 0 .8.3.9.7s0 .9-.3 1.1l-2.2 1.9.7 2.9c.1.4-.1.9-.4 1.1-.3.2-.5.3-.7.3zm-8.1-6.8L54.8 7c.3.3.4.7.3 1.1l-.7 2.8.4.5-.2-.4 2.5-1.5c.3-.2.8-.2 1.1 0l2.4 1.5h.1l-.6-2.9c-.1-.4 0-.8.4-1.1l2.2-1.9v-.6.5l-2.9-.2c-.4 0-.8-.3-.9-.7l-1.1-2.7h-.2l-1.1 2.7c-.2.4-.5.6-.9.7l-2.9.2-.4.5.3-.3zm-13 6.4c-.2 0-.4-.1-.6-.2l-2.4-1.5-2.6 1.5c-.4.2-.8.2-1.2 0-.4-.3-.5-.7-.4-1.1l.7-2.8-2.2-2c-.3-.3-.5-.7-.3-1.2.1-.4.5-.7.9-.7l2.9-.2L35.6.7c.2-.4.6-.7 1-.7s.8.3 1 .7l1.1 2.7 2.9.3c.4 0 .8.3.9.7.1.4 0 .9-.3 1.1L40 7.4l.7 2.9c.1.4-.1.9-.4 1.1-.3.1-.5.2-.7.2zm-3.1-2.7c.2 0 .4.1.6.2l2.4 1.5h.1L39 7.7c-.1-.4 0-.8.4-1.1l2.2-1.9v-.6.5l-2.9-.2c-.4 0-.8-.3-.9-.7L36.6 1 36 .9l.4.1-1.1 2.7c-.2.4-.5.6-.9.7l-2.9.2v.2l2.2 1.9c.3.2.4.6.3 1l-.7 2.8.1.1L35.9 9c.2-.1.4-.1.6-.1z"/></g><g class="st1"><path class="st5" d="M58.4 65.7L29 63.9c-.8-.1-3.8-2.9-3.8-3.7l7.5-47.6c.1-.8 10.5-5.5 11.4-5.4l16.8 1c.8.1 2.3 3.3 2.2 4.1l-3.2 52c.1.8-.6 1.4-1.5 1.4z"/><path class="st5" d="M58.4 66L29 64.1c-.9-.1-4.1-3-4-4l7.5-47.6c0-.2 0-.7 6.6-3.2 2.6-1 4.5-2.5 5-2.5l16.8 1c.6 0 1.2 1.1 1.7 1.9.4.8.8 2 .8 2.5l-3.2 52c0 1.1-.8 1.8-1.8 1.8zM33.1 12.6l-7.5 47.6c0 .6 2.8 3.3 3.5 3.4l29.4 1.8c.7 0 1.3-.5 1.3-1.2l3.2-52c.1-1-1.5-3.8-2-3.8l-16.8-1c-1 0-10.5 4.4-11.1 5.2zm0 0z"/><path class="st11" d="M56.1 63.6l-29.4-1.8c-.8-.1-1.5-.8-1.4-1.6l3.2-52.5c.1-.8.8-1.5 1.6-1.4l15.8 1c.5 0 .9.5.8 1l-.3 4.8c0 .5.3.9.8 1l12.4.8c.5 0 .9.5.8 1l-2.9 46.5c.1.6-.6 1.3-1.4 1.2z"/><path class="st5" d="M56.1 63.9l-29.4-1.8c-1-.1-1.7-.9-1.7-1.9l3.2-52.5c.1-1 .9-1.7 1.9-1.7L46 7c.6 0 1.1.6 1.1 1.2l-.3 4.8c0 .4.2.7.6.7l12.4.8c.6 0 1.1.6 1.1 1.2L58 62.2c-.1 1-1 1.7-1.9 1.7zm-26-57.3c-.7 0-1.3.5-1.3 1.2l-3.2 52.5c0 .7.5 1.3 1.2 1.3l29.4 1.8c.7 0 1.3-.5 1.3-1.2l2.9-46.5c0-.4-.2-.7-.6-.7l-12.4-.8c-.6 0-1.1-.6-1.1-1.2l.3-4.8c0-.4-.2-.7-.6-.7l-15.9-.9z"/><path class="st2" d="M39.5 54c-.1 0-.2-.1-.1-.2.4-.8 1.1-1.5 2-1.7.1 0 .2 0 .2.1s0 .2-.1.2c-.8.2-1.4.7-1.7 1.5-.1 0-.2.1-.3.1z"/><path class="st2" d="M38.8 53.9c-.1 0-.2-.1-.1-.2.4-1.3 1.5-2.2 2.8-2.4.1 0 .2 0 .2.1s0 .2-.1.2c-1.2.2-2.2 1-2.5 2.2-.2 0-.2.1-.3.1zM40.3 54s-.1 0 0 0c-.2-.1-.2-.2-.1-.2.3-.4.7-.7 1.1-.9.1 0 .2 0 .2.1s0 .2-.1.2c-.4.2-.7.4-1 .8h-.1z"/><path class="st2" d="M41.9 58c-1.5-.1-2.8-1.3-2.8-2.9 0-.2.1-.3.2-.5.1-.1.3-.2.5-.2s.4.1.5.6c0 .3.2.4.4.6.3.3.6.6.3 1.2 0 .1-.1.1-.2.1s-.1-.1-.1-.2c.2-.4.1-.5-.2-.8-.2-.2-.5-.4-.5-.8 0-.3-.1-.3-.2-.3s-.1 0-.2.1-.1.1-.1.2c.1 1.4 1.3 2.6 2.7 2.6 1.4 0 2.5-1 2.7-2.4.2-1.4-.7-2.6-2-3-.2-.1-.4.1-.5.2-.1.1-.1.3.1.5.2.1.9.4.9.9 0 .2-.1.3-.2.4-.2.1-.4.1-.5.1-.3-.1-.5 0-.6 0-.1.1-.1.1-.2.3-.1.4.1.5.2.6.2.1.4.3.4.7 0 .4.2.8.3.9 0 0 .1-.1.2-.4.2-.6.2-1 .2-1.2 0-.1.1-.2.2-.3.1-.1.2-.1.4 0h.7c.1 0 .2 0 .2.1s0 .2-.1.2c-.3.1-.6 0-.8-.1h-.1v.1c0 .2-.1.7-.2 1.3-.2.6-.4.7-.6.6-.4-.1-.7-.7-.6-1.2 0-.2-.1-.3-.2-.4-.2-.1-.5-.3-.4-.9 0-.2.1-.4.3-.5.2-.1.5-.2.9-.1h.2s.1-.1.1-.2c0-.2-.5-.5-.7-.5-.3-.2-.4-.6-.2-.9.2-.3.5-.5.8-.4 1.5.4 2.5 1.8 2.3 3.3-.2 1.5-1.5 2.7-3 2.7-.3-.1-.4-.1-.5-.1z"/><path class="st7" d="M58.7 13.8L48 13.1c-.3 0-.5-.3-.5-.5l.2-3.8c0-.3.3-.5.5-.5L59 9c.3 0 .5.3.5.5l-.2 3.8c0 .3-.3.5-.6.5z"/><path class="st8" d="M53.3 13.4l-1.3-.1 2.4-4.6 2.3.1z"/></g></g><g id="Calque_3"><path class="st11" d="M25.2 25.4h-.5c-.4 0-.7-.3-.7-.6l-.2-3.9c0-.4.3-.7.6-.7h.5c.4 0 .7.3.7.6l.2 3.9c.1.3-.2.6-.6.7z"/><path class="st5" d="M25 25.7c-.7 0-1.2-.5-1.3-1.1l-.1-3.6c0-.7.5-1.2 1.2-1.3.7 0 1.2.5 1.3 1.1l.2 3.5c-.1.8-.6 1.3-1.3 1.4zm-.2-5.3c-.3 0-.6.3-.6.6l.2 3.5c0 .3.3.6.6.6s.6-.3.6-.6l-.2-3.5c0-.4-.3-.6-.6-.6z"/><path class="st11" d="M64.4 1.3l3.1 2.9c.9.9 1 2.4.1 3.4l-2.4 2.6c-.6.6-.9 1.4-.8 2.3l2.7 51.8c.2 3.2-2.3 5.9-5.6 6.1l-27.1 1.4c-2.8.1-6.9-3.4-7.1-6.1L64.4 1.3z"/><path class="st5" d="M61.6 70.6L34.5 72c-3 .2-7.2-3.6-7.4-6.4v-.2L64.4.8l3.4 3.1c1.1 1 1.1 2.7.1 3.8l-2.4 2.6c-.5.6-.8 1.3-.7 2l2.7 51.8c.1 3.4-2.5 6.3-5.9 6.5zm-33.9-5c.2 2.5 4.1 5.9 6.7 5.7l27.1-1.4c3.1-.2 5.4-2.7 5.3-5.7l-2.7-51.8c0-.9.3-1.8.9-2.5l2.4-2.6c.8-.9.7-2.1-.1-2.9l-2.8-2.6-36.8 63.8z"/><path class="st12" d="M60.6 1.1L57.9 4c-.4.5-1 .7-1.6.8L29.4 6.1c-2.8.1-4.9 2.5-4.8 5.2l2.8 53.9c.1 2.7 2.5 4.9 5.3 4.7l27.9-1.4c2.8-.1 4.9-2.5 4.8-5.2l-2.7-52.9c0-.6.2-1.2.6-1.7l2.6-2.9c.9-1 .8-2.5-.1-3.4L64.2 1c-1-1-2.6-1-3.6.1z"/><path class="st5" d="M60.6 68.9l-27.9 1.4c-3 .2-5.5-2.1-5.6-5l-2.8-53.9c-.2-2.9 2.1-5.4 5.1-5.6l26.9-1.4c.5 0 1.1-.3 1.4-.7L60.4.8c.5-.6 1.2-.9 2-.9s1.5.3 2 .8L66 2.3c1.1 1 1.1 2.7.1 3.8L63.5 9c-.4.4-.6.9-.5 1.5l2.7 52.9c.1 2.8-2.1 5.3-5.1 5.5zM29.4 6.5c-2.6.1-4.6 2.3-4.5 4.9l2.8 53.9c.1 2.6 2.4 4.6 5 4.4l27.9-1.4c2.6-.1 4.6-2.3 4.5-4.9l-2.7-52.9c0-.7.2-1.4.7-1.9l2.6-2.9c.8-.9.7-2.1-.1-2.9L64 1.2c-.4-.4-1-.6-1.6-.6-.6 0-1.1.3-1.5.7l-2.7 2.9c-.5.5-1.2.8-1.9.9L29.4 6.5z"/><ellipse transform="rotate(-2.944 36.777 18.21) scale(1.00002)" class="st2" cx="36.8" cy="18.2" rx=".4" ry=".4"/><ellipse transform="rotate(-2.944 41.383 17.97) scale(1.00002)" class="st2" cx="41.4" cy="18" rx=".4" ry=".4"/><ellipse transform="rotate(-2.944 45.99 17.733) scale(1.00002)" class="st2" cx="46" cy="17.7" rx=".4" ry=".4"/><ellipse transform="rotate(-2.944 50.598 17.497) scale(1.00002)" class="st2" cx="50.6" cy="17.5" rx=".4" ry=".4"/><path class="st2" d="M33.8 15.7c.2-.2.5-.2.7 0 .1.1.3-.1.2-.2-.3-.3-.8-.3-1.1.1-.1 0 .1.2.2.1z"/><path class="st2" d="M33.4 15.3c.5-.5 1.1-.5 1.7-.1.1.1.3-.1.2-.2-.6-.5-1.5-.5-2 .1-.3.1-.1.3.1.2z"/><path class="st2" d="M32.9 14.8c.7-.7 1.8-.8 2.6-.1.1.1.3-.1.2-.2-.9-.7-2.2-.7-3 .1-.2.2 0 .4.2.2z"/><ellipse transform="rotate(-2.944 34.218 16.014) scale(1.00002)" class="st2" cx="34.2" cy="16" rx=".1" ry=".1"/><g><path class="st2" d="M42.7 15.8c-.1 0-.2-.1-.2-.1v-.9c0-.1.1-.2.1-.2l.2.1v.9c.1.1 0 .2-.1.2zM43.4 15.7c-.1 0-.2-.1-.2-.1l-.1-1.2c0-.1.1-.2.1-.2.1 0 .2.1.2.1l.1 1.2c0 .2 0 .2-.1.2zM44.1 15.7c-.1 0-.2-.1-.2-.1l-.1-1.6c0-.1.1-.2.1-.2.1 0 .2.1.2.1l.1 1.5c0 .2 0 .3-.1.3zM44.8 15.7c-.1 0-.2-.1-.2-.1l-.1-1.8c0-.1.1-.2.1-.2l.2.1.1 1.8c0 .1 0 .2-.1.2z"/></g><g><path class="st2" d="M54.8 15.1l-2.7.1c-.2 0-.3-.1-.3-.3v-.3h-.1c-.2 0-.3-.1-.3-.3v-.4c0-.2.1-.3.3-.3h.1v-.3c0-.2.1-.3.3-.3l2.7-.1c.2 0 .3.1.3.3l.1 1.5c-.1.2-.2.4-.4.4zM51.6 14v.4h.1c.2 0 .3.1.3.3v.3l2.7-.1-.1-1.5H52v.3c0 .2-.1.3-.3.3h-.1z"/><path class="st2" d="M52.6 14.7c-.1 0-.2-.1-.2-.1v-.8c0-.1.1-.2.1-.2.1 0 .2.1.2.1v.8c0 .1 0 .2-.1.2zM53.2 14.7c-.1 0-.2-.1-.2-.1v-.8c0-.1.1-.2.1-.2.1 0 .2.1.2.1v.8c0 .1 0 .1-.1.2zM53.8 14.6c-.1 0-.2-.1-.2-.1v-.8c0-.1.1-.2.1-.2.1 0 .2.1.2.1v.8c0 .1 0 .2-.1.2zM54.4 14.6c-.1 0-.2-.1-.2-.1v-.8c0-.1.1-.2.1-.2l.2.1v.8c0 .1-.1.2-.1.2z"/></g><path class="st5" d="M50.1 70.3l-3.5.2c-.2 0-.3-.1-.3-.3 0-.2.1-.3.3-.3l3.5-.2c.2 0 .3.1.3.3s-.2.3-.3.3z"/><path class="st11" d="M59.6 67.2l-25.7 1.3c-2.5.1-4.7-1.8-4.8-4.2l-2.7-51.8c-.1-2.5 1.8-4.6 4.3-4.7l25.7-1.3c2.5-.1 4.7 1.8 4.8 4.2L64 62.5c.1 2.4-1.9 4.6-4.4 4.7zM30.8 7.8c-2.4.1-4.3 2.2-4.2 4.6l2.7 51.8c.1 2.4 2.2 4.2 4.6 4.1L59.6 67c2.4-.1 4.3-2.2 4.2-4.6l-2.7-51.8c-.1-2.4-2.2-4.2-4.6-4.1L30.8 7.8z"/><path class="st5" d="M64.8 9.1c-.1 0-.2 0-.2-.1-.1-.1-.1-.3 0-.4l1.8-1.9c.1-.1.3-.1.4 0 .1.1.1.3 0 .4L65 9c-.1 0-.2.1-.2.1z"/><g><path class="st2" d="M44.2 59.3c-.2 0-.2-.1-.2-.2.3-1 1.1-1.8 2.1-2.2.1 0 .2 0 .2.1s0 .2-.1.2c-.9.3-1.6 1-1.8 2 0 0-.1.1-.2.1z"/><path class="st2" d="M43.3 59.3c-.2 0-.2-.1-.2-.2.3-1.5 1.4-2.7 2.9-3.2.1 0 .2 0 .2.1s0 .2-.1.2c-1.4.4-2.4 1.5-2.7 2.9.1.1 0 .2-.1.2zM45.1 59.3c-.2-.1-.2-.2-.2-.3.3-.5.7-1 1.2-1.2.1 0 .2 0 .3.1 0 .1 0 .2-.1.3-.4.2-.8.6-1 1.1-.1-.1-.1 0-.2 0z"/><path class="st2" d="M47.6 63.7c-1.8.1-3.4-1.2-3.7-3 0-.2 0-.4.2-.6.1-.2.3-.2.5-.2s.5.1.6.6c.1.3.3.5.5.7.3.3.8.6.5 1.3 0 .1-.2.1-.3.1-.1 0-.1-.2-.1-.3.2-.5 0-.6-.3-.9-.3-.2-.6-.4-.7-.9-.1-.3-.2-.3-.3-.3-.1 0-.2 0-.2.1-.1.1-.1.2-.1.3.3 1.7 1.8 2.8 3.5 2.6 1.6-.2 2.8-1.5 2.8-3.1s-1.2-3-2.8-3.2c-.3 0-.5.1-.5.3-.1.2 0 .4.2.6.2 0 1.1.3 1.2.9 0 .3-.1.4-.2.5-.2.2-.5.2-.5.2-.3 0-.6 0-.7.1-.1.1-.1.2-.2.3 0 .5.1.5.4.7.2.1.5.3.5.7 0 .5.4 1 .5 1 0 0 .2-.1.2-.5.1-.7.1-1.2.1-1.4 0-.1.1-.3.2-.4.1-.1.3-.1.4-.1.2.1.5.1.7 0 .1 0 .2 0 .2.1s0 .2-.1.2c-.3.1-.7.1-.9 0h-.1v.1c0 .3 0 .8-.1 1.5s-.4.8-.6.8c-.5 0-.9-.7-.9-1.3 0-.3-.1-.3-.3-.4-.3-.1-.6-.3-.6-1 0-.3.1-.5.3-.6.2-.2.6-.3 1-.2 0 0 .2 0 .2-.1 0 0 .1-.1.1-.2 0-.3-.6-.5-.9-.5h-.1c-.3-.2-.5-.6-.3-1 .1-.4.5-.6.9-.6 1.8.2 3.1 1.8 3.1 3.6s-1.4 3.3-3.2 3.5h-.1z"/></g><g><path class="st13" d="M17.3 61.3s5.4-3.5 1.4-11c-4.7 5.2-1.4 11-1.4 11z"/><path class="st5" d="M17.1 62l-.3-.5c0-.1-3.4-6.1 1.5-11.6l.5-.6.4.7c4.1 7.9-1.6 11.7-1.6 11.7l-.5.3zm1.5-10.8c-2.9 3.8-1.7 7.7-1.1 9.2 1.1-1 3.5-3.9 1.1-9.2z"/><path class="st13" d="M17.1 61.4S14 55.8 6.2 59.1c5 5.2 10.9 2.3 10.9 2.3z"/><path class="st5" d="M13.2 62.7c-2.2 0-4.9-.7-7.3-3.2l-.6-.5.7-.3c8.1-3.5 11.5 2.4 11.5 2.5l.3.5-.5.2s-1.7.8-4.1.8zm-6-3.4c3.6 3.3 7.6 2.3 9.1 1.8-.9-1.1-3.7-3.8-9.1-1.8z"/><path class="st13" d="M12.4 55.7s5.3-2.5 2.7-9.8c-4.9 4.2-2.7 9.8-2.7 9.8z"/><path class="st5" d="M12.1 56.4l-.2-.5c0-.1-2.3-6 2.9-10.4l.6-.5.3.7c2.7 7.7-2.9 10.4-3 10.4l-.6.3zm2.8-9.5c-3.1 3-2.5 6.6-2.1 8 1.1-.8 3.5-3.1 2.1-8z"/><path class="st13" d="M12.3 55.8s-2.1-5.5-9.5-3.4c3.7 5.2 9.5 3.4 9.5 3.4z"/><path class="st5" d="M9.9 56.6c-2.2 0-5.3-.7-7.6-3.9l-.5-.6.7-.2c7.9-2.1 10.2 3.7 10.2 3.8l.2.5-.5.2c0-.1-1 .2-2.5.2zm-6.2-3.9c2.8 3.3 6.4 3 7.8 2.7-.7-1.1-2.9-3.7-7.8-2.7z"/><path class="st13" d="M8.9 49.6s5.1-1 4.3-7.9c-5.1 2.5-4.3 7.9-4.3 7.9z"/><path class="st5" d="M8.4 50.2l-.1-.6c0-.1-.8-5.7 4.6-8.4l.7-.3.1.8c.8 7.2-4.7 8.5-4.8 8.5h-.5zm4.3-7.6c-3.1 1.9-3.4 5-3.4 6.3 1.2-.5 3.6-2.1 3.4-6.3z"/><path class="st13" d="M8.7 49.6s-.7-5.2-7.5-4.9c2.2 5.3 7.5 4.9 7.5 4.9z"/><path class="st5" d="M8.5 50.2c-1.1 0-5.8-.3-7.8-5.3l-.3-.7h.8c7.3-.3 8.1 5.3 8.1 5.4l.1.6H8.5zm-6.5-5C3.7 48.4 6.7 49 8 49c-.4-1.1-1.7-3.6-6-3.8z"/><path class="st13" d="M7.3 43s4.8-.4 4.9-6.8C7.2 38 7.3 43 7.3 43z"/><path class="st5" d="M6.8 43.5v-.6c0-.1-.1-5.4 5.2-7.4l.7-.3v.8c0 6.8-5.3 7.4-5.4 7.4l-.5.1zm4.8-6.6c-3 1.4-3.6 4.1-3.7 5.4 1.1-.3 3.4-1.5 3.7-5.4z"/><path class="st13" d="M7.2 43s-.1-4.8-6.5-5.4C2.2 42.8 7.2 43 7.2 43z"/><path class="st5" d="M7.7 43.6h-.6c-.1 0-5.4-.3-7-5.8L0 37l.8.1c6.8.6 7 5.8 7 5.9l-.1.6zm-6.2-5.3c1.2 3.1 3.8 3.9 5.1 4.1-.3-1.2-1.3-3.5-5.1-4.1z"/><path class="st13" d="M6.9 36.1s4.3.8 5.8-4.8c-4.8.4-5.8 4.8-5.8 4.8z"/><path class="st5" d="M7.4 36.7h-.6l-.6-.1.2-.6s1.2-4.8 6.3-5.2l.8-.1-.2.7c-1.3 4.8-4.6 5.3-5.9 5.3zm4.6-4.8c-2.8.6-3.9 2.6-4.3 3.7 1-.1 3.1-.6 4.3-3.7z"/><g><path class="st13" d="M6.8 36.1s1.1-4.2-4.4-6.2c0 4.9 4.4 6.2 4.4 6.2z"/><path class="st5" d="M7.1 36.8l-.5-.2s-4.7-1.5-4.7-6.7v-.8l.7.3c5.8 2.1 4.7 6.8 4.7 6.8l-.2.6zM3 30.7c.4 2.8 2.3 4.1 3.3 4.6 0-1-.3-3.2-3.3-4.6z"/></g><g><path class="st13" d="M8.2 29.6s4 1.4 6.3-3.7c-4.7-.3-6.3 3.7-6.3 3.7z"/><path class="st5" d="M9.4 30.3c-.8 0-1.4-.2-1.4-.2l-.6-.1.2-.5s1.8-4.4 6.8-4l.8.1-.3.7c-1.6 3.4-4 4-5.5 4zm-.4-1c1 .1 3.1-.1 4.6-2.8-2.6.1-4.1 1.8-4.6 2.8z"/></g><g><path class="st13" d="M8 29.6s1.7-3.8-3.2-6.5C4.1 27.7 8 29.6 8 29.6z"/><path class="st5" d="M8.3 30.4l-.5-.3S3.6 27.9 4.3 23l.1-.8.7.4c5.2 2.9 3.4 7.2 3.4 7.2l-.2.6zm-3-6.4c-.1 2.6 1.5 4.1 2.4 4.8.2-1 .2-3.1-2.4-4.8z"/></g><g><path class="st13" d="M10.9 23.2s3.5 2.2 6.9-2.2c-4.4-1.3-6.9 2.2-6.9 2.2z"/><path class="st5" d="M13.1 24.3c-1.5 0-2.5-.6-2.5-.6l-.5-.3.3-.5s2.8-3.8 7.5-2.4l.7.2-.5.6c-1.6 2.4-3.5 3-5 3zM11.8 23c1 .3 3 .6 5.1-1.7-2.6-.4-4.4 1-5.1 1.7z"/></g><g><path class="st13" d="M10.8 23.2s2.5-3.4-1.6-7.1c-1.8 4.3 1.6 7.1 1.6 7.1z"/><path class="st5" d="M10.9 24l-.4-.4s-3.6-3.1-1.8-7.7l.3-.7.6.5c4.5 4 1.8 7.8 1.7 7.8l-.4.5zm-1.5-6.9c-.7 2.5.6 4.4 1.3 5.2.4-.9.8-2.9-1.3-5.2z"/></g><g><path class="st13" d="M14.1 18.6s3.3 2.4 6.9-1.7c-4.2-1.6-6.9 1.7-6.9 1.7z"/><path class="st5" d="M16.5 19.8c-1.6 0-2.7-.8-2.7-.8l-.5-.3.4-.4s2.9-3.6 7.5-1.9l.7.3-.5.6c-1.8 1.9-3.5 2.5-4.9 2.5zM15 18.4c.9.4 2.9.7 5-1.3-2.4-.6-4.2.6-5 1.3z"/></g><g><path class="st13" d="M16.9 14.9s4.1.1 4.8-5.2c-4.4 1-4.8 5.2-4.8 5.2z"/><path class="st5" d="M16.9 15.5h-.6v-.6s.4-4.6 5.2-5.7l.8-.2-.1.8c-.7 5.6-4.9 5.7-5.3 5.7zm4.1-5c-2.4.9-3.2 2.8-3.4 3.9 1-.3 2.8-1 3.4-3.9z"/></g><g><path class="st13" d="M14 18.5s2.6-3.1-1.2-7c-1.9 4.1 1.2 7 1.2 7z"/><path class="st5" d="M14.1 19.3l-.4-.4s-3.3-3.2-1.3-7.6l.3-.7.5.6c4.1 4.1 1.2 7.7 1.2 7.7l-.3.4zM13 12.5c-.8 2.4.3 4.2.9 5.1.5-.9 1-2.8-.9-5.1z"/></g><path class="st5" d="M18.2 63C10.8 56.1 6.9 48.4 6.7 40.1c-.5-14.4 10-25.8 10.1-25.9l.8.7C17.5 15 7.3 26.1 7.7 40c.3 8.1 4 15.5 11.2 22.2l-.7.8z"/></g><g><path class="st13" d="M76.7 61.3s-5.4-3.5-1.4-11c4.7 5.2 1.4 11 1.4 11z"/><path class="st5" d="M76.4 61.7c-.1 0-5.7-3.8-1.6-11.7l.4-.7.5.6c4.9 5.5 1.5 11.6 1.5 11.6l-.3.5-.5-.3zm.1-1.3c.6-1.4 1.8-5.4-1.1-9.2-2.4 5.3 0 8.2 1.1 9.2z"/><path class="st13" d="M76.9 61.4s3.1-5.6 10.9-2.3c-5 5.2-10.9 2.3-10.9 2.3z"/><path class="st5" d="M76.6 61.9l-.5-.2.3-.5c0-.1 3.4-6 11.5-2.5l.7.3-.5.6c-2.4 2.5-5.1 3.2-7.3 3.2-2.4-.1-4.1-.9-4.2-.9zm1.1-.7c1.5.5 5.5 1.4 9.1-1.8-5.4-2.1-8.2.6-9.1 1.8z"/><path class="st13" d="M81.6 55.7s-5.3-2.5-2.7-9.8c4.9 4.2 2.7 9.8 2.7 9.8z"/><path class="st5" d="M81.3 56.2c-.1 0-5.7-2.8-3-10.4l.3-.7.6.5c5.2 4.4 2.9 10.3 2.9 10.4l-.2.5-.6-.3zm0-1.3c.4-1.4.9-5-2.1-8-1.5 4.9.9 7.2 2.1 8z"/><path class="st13" d="M81.7 55.8s2.1-5.5 9.5-3.4c-3.7 5.2-9.5 3.4-9.5 3.4z"/><path class="st5" d="M81.6 56.3l-.6-.1.2-.5c0-.1 2.3-5.9 10.2-3.8l.7.2-.5.6c-2.4 3.3-5.5 3.9-7.6 3.9-1.4 0-2.4-.3-2.4-.3zm.9-.9c1.4.3 5 .5 7.8-2.7-4.9-1-7.1 1.6-7.8 2.7z"/><path class="st13" d="M85.1 49.6s-5.1-1-4.3-7.9c5.1 2.5 4.3 7.9 4.3 7.9z"/><path class="st5" d="M85 50.1c-.1 0-5.6-1.2-4.8-8.5l.1-.8.7.3c5.4 2.7 4.6 8.4 4.6 8.4l-.1.6H85zm-.3-1.3c0-1.3-.3-4.4-3.4-6.3-.2 4.3 2.2 5.9 3.4 6.3z"/><path class="st13" d="M85.3 49.6s.7-5.2 7.5-4.9c-2.2 5.3-7.5 4.9-7.5 4.9z"/><path class="st5" d="M85.3 50.2h-.6l.1-.6c0-.1.8-5.6 8.1-5.4h.8l-.3.7c-2 5-6.7 5.3-7.8 5.3h-.3zm.7-1.1c1.3-.1 4.3-.7 6-3.8-4.3.1-5.6 2.6-6 3.8z"/><path class="st13" d="M86.7 43s-4.8-.4-4.9-6.8c5 1.8 4.9 6.8 4.9 6.8z"/><path class="st5" d="M86.6 43.5c-.1 0-5.3-.5-5.4-7.4v-.8l.7.3c5.4 2 5.2 7.3 5.2 7.4v.6l-.5-.1zm-.5-1.2c-.1-1.2-.8-3.9-3.7-5.4.3 3.9 2.6 5.1 3.7 5.4z"/><path class="st13" d="M86.8 43s.1-4.8 6.5-5.4c-1.5 5.2-6.5 5.4-6.5 5.4z"/><path class="st5" d="M86.3 43c0-.1.1-5.3 7-5.9l.7-.1-.2.7c-1.5 5.5-6.9 5.8-7 5.8h-.6l.1-.5zm1.1-.6c1.2-.2 3.8-1.1 5.1-4.1-3.8.6-4.8 2.9-5.1 4.1z"/><path class="st13" d="M87.1 36.1s-4.3.8-5.8-4.8c4.8.4 5.8 4.8 5.8 4.8z"/><path class="st5" d="M80.7 31.4l-.2-.7.8.1c5.2.5 6.3 5.2 6.3 5.2l.1.6-.6.1h-.6c-1.2 0-4.5-.5-5.8-5.3zm5.7 4.2c-.4-1-1.6-3.1-4.3-3.7 1.1 3.1 3.2 3.6 4.3 3.7z"/><g><path class="st13" d="M87.2 36.1s-1.1-4.2 4.4-6.2c0 4.9-4.4 6.2-4.4 6.2z"/><path class="st5" d="M86.7 36.2s-1.1-4.7 4.7-6.8l.7-.3v.8c-.1 5.2-4.7 6.7-4.7 6.7l-.5.2-.2-.6zm1-.9c1-.5 3-1.8 3.3-4.6-3 1.4-3.3 3.6-3.3 4.6z"/></g><g><path class="st13" d="M85.8 29.6s-4 1.4-6.3-3.7c4.7-.3 6.3 3.7 6.3 3.7z"/><path class="st5" d="M79.1 26.2l-.3-.7.8-.1c5-.4 6.8 3.9 6.8 4l.2.5-.6.2s-.6.2-1.4.2c-1.5 0-3.9-.6-5.5-4.1zm1.3.3c1.5 2.7 3.6 2.9 4.6 2.8-.5-1-2-2.7-4.6-2.8z"/></g><g><path class="st13" d="M86 29.6s-1.7-3.8 3.2-6.5c.7 4.6-3.2 6.5-3.2 6.5z"/><path class="st5" d="M85.5 29.8s-1.8-4.3 3.4-7.2l.7-.4.1.8c.7 4.9-3.4 7.1-3.5 7.1l-.5.3-.2-.6zm.8-1c.9-.6 2.5-2.2 2.4-4.8-2.6 1.7-2.6 3.8-2.4 4.8z"/></g><g><path class="st13" d="M83.1 23.2s-3.5 2.2-6.9-2.2c4.4-1.3 6.9 2.2 6.9 2.2z"/><path class="st5" d="M75.7 21.4l-.5-.6.7-.2c4.8-1.5 7.5 2.3 7.5 2.4l.3.5-.5.3s-1 .6-2.5.6c-1.3-.1-3.2-.7-5-3zm1.4 0c2.1 2.3 4.1 2 5.1 1.7-.7-.8-2.5-2.2-5.1-1.7z"/></g><g><path class="st13" d="M83.2 23.2s-2.5-3.4 1.6-7.1c1.8 4.3-1.6 7.1-1.6 7.1z"/><path class="st5" d="M82.8 23.5s-2.7-3.8 1.7-7.8l.6-.5.3.7c1.8 4.6-1.8 7.7-1.8 7.7l-.5.4-.3-.5zm.5-1.2c.7-.8 1.9-2.7 1.3-5.2-2.1 2.3-1.7 4.3-1.3 5.2z"/></g><g><path class="st13" d="M79.9 18.6S76.6 21 73 16.9c4.2-1.6 6.9 1.7 6.9 1.7z"/><path class="st5" d="M72.6 17.2l-.5-.6.7-.3c4.5-1.7 7.4 1.8 7.5 1.9l.4.4-.5.4s-1.1.8-2.7.8c-1.4 0-3.1-.6-4.9-2.6zm1.4-.1c2.1 2 4.1 1.7 5 1.3-.8-.7-2.6-1.9-5-1.3z"/></g><g><path class="st13" d="M77.1 14.9s-4.1.1-4.8-5.2c4.4 1 4.8 5.2 4.8 5.2z"/><path class="st5" d="M71.8 9.8l-.1-.8.8.2c4.7 1.1 5.2 5.7 5.2 5.7v.6h-.6c-.4 0-4.6-.1-5.3-5.7zm4.6 4.5c-.3-1-1.1-3-3.4-3.9.6 3 2.4 3.7 3.4 3.9z"/></g><g><path class="st13" d="M80 18.5s-2.6-3.1 1.2-7c1.9 4.1-1.2 7-1.2 7z"/><path class="st5" d="M79.6 18.9s-2.9-3.6 1.2-7.7l.5-.6.3.7c2 4.4-1.3 7.6-1.3 7.6l-.4.4-.3-.4zm.5-1.3c.6-.8 1.7-2.7.9-5.1-1.9 2.3-1.4 4.2-.9 5.1z"/></g><path class="st5" d="M75.8 63c7.4-6.9 11.3-14.6 11.5-22.9.5-14.4-10.1-25.8-10.2-25.9l-.8.7c.2.1 10.4 11.2 10 25.1-.3 8.1-4 15.5-11.2 22.2l.7.8z"/></g></g></svg>